<?xml version="1.0" encoding="UTF-8" standalone="no"?>
<!-- Created with Inkscape (http://www.inkscape.org/) -->

<svg
   width="14.249421mm"
   height="14.388724mm"
   viewBox="0 0 14.249421 14.388724"
   version="1.1"
   id="svg55446"
   inkscape:export-filename="chat_button.png"
   inkscape:export-xdpi="96"
   inkscape:export-ydpi="96"
   sodipodi:docname="chat_button_hover.svg"
   inkscape:version="1.2.1 (9c6d41e410, 2022-07-14)"
   xmlns:inkscape="http://www.inkscape.org/namespaces/inkscape"
   xmlns:sodipodi="http://sodipodi.sourceforge.net/DTD/sodipodi-0.dtd"
   xmlns:xlink="http://www.w3.org/1999/xlink"
   xmlns="http://www.w3.org/2000/svg"
   xmlns:svg="http://www.w3.org/2000/svg">
  <sodipodi:namedview
     id="namedview55448"
     pagecolor="#ffffff"
     bordercolor="#999999"
     borderopacity="1"
     inkscape:showpageshadow="0"
     inkscape:pageopacity="0"
     inkscape:pagecheckerboard="0"
     inkscape:deskcolor="#d1d1d1"
     inkscape:document-units="mm"
     showgrid="false"
     inkscape:zoom="0.78127806"
     inkscape:cx="24.319127"
     inkscape:cy="101.11637"
     inkscape:window-width="1003"
     inkscape:window-height="1041"
     inkscape:window-x="916"
     inkscape:window-y="18"
     inkscape:window-maximized="0"
     inkscape:current-layer="layer1" />
  <defs
     id="defs55443">
    <linearGradient
       inkscape:collect="always"
       xlink:href="#linearGradient22182"
       id="linearGradient40955"
       gradientUnits="userSpaceOnUse"
       gradientTransform="translate(34.975557,-97.480961)"
       x1="711.53455"
       y1="-224.01414"
       x2="711.81653"
       y2="-188.91875" />
    <linearGradient
       inkscape:collect="always"
       id="linearGradient22182">
      <stop
         style="stop-color:#ffffff;stop-opacity:1;"
         offset="0"
         id="stop22178" />
      <stop
         style="stop-color:#ffffff;stop-opacity:0;"
         offset="1"
         id="stop22180" />
    </linearGradient>
    <filter
       inkscape:collect="always"
       style="color-interpolation-filters:sRGB"
       id="filter40963"
       x="-0.63729473"
       y="-0.63713731"
       width="2.2745895"
       height="2.2742746">
      <feGaussianBlur
         inkscape:collect="always"
         stdDeviation="41.155209"
         id="feGaussianBlur40965" />
    </filter>
  </defs>
  <g
     inkscape:label="Warstwa 1"
     inkscape:groupmode="layer"
     id="layer1"
     transform="translate(-87.402127,-113.78902)">
    <g
       id="g40947"
       transform="translate(-653.41856,406.43576)">
      <rect
         style="fill:#303030;fill-opacity:1;stroke-width:0.28679"
         id="rect40941"
         width="13.461711"
         height="14.055989"
         x="741.26117"
         y="-292.31406"
         ry="2.3293049" />
      <path
         id="path40943"
         style="fill:#181818;fill-opacity:1;stroke-width:0.28679"
         d="m 741.26118,-281.12864 v 0.54156 c 0,1.29044 1.03914,2.32906 2.32957,2.32906 h 8.80308 c 1.29044,0 2.32906,-1.03862 2.32906,-2.32906 v -0.54156 c 0,1.23088 -0.99068,2.22208 -2.22157,2.22208 h -9.01805 c -1.23089,0 -2.22209,-0.9912 -2.22209,-2.22208 z" />
      <rect
         style="fill:url(#linearGradient40955);fill-opacity:1;stroke-width:0.28679"
         id="rect40945"
         width="13.461711"
         height="14.055989"
         x="741.26117"
         y="-292.31406"
         ry="2.3293049" />
    </g>
    <g
       id="g40953"
       transform="matrix(0.0404202,0,0,0.0404202,57.29084,132.43978)"
       style="fill:#ffffff">
      <path
         style="opacity:1;fill:#ffffff;fill-opacity:1;stroke-width:0.551209"
         d="m -10102.512,6123.5465 c -0.76,-0.3266 -2.147,-0.9249 -3.084,-1.3295 -2.683,-1.1591 -6.559,-5.7036 -7.884,-9.2447 -1.395,-3.7297 -1.501,-7.4117 -0.313,-10.8617 0.907,-2.6324 2.991,-6.0666 3.685,-6.073 0.228,0 0.414,-0.2537 0.414,-0.5593 0,-0.3055 1.336,-1.9835 2.968,-3.7289 1.632,-1.7453 9.756,-11.0039 18.054,-20.5747 8.297,-9.5708 15.481,-17.7744 15.963,-18.2301 0.483,-0.4558 2.333,-2.5067 4.111,-4.5577 3.631,-4.1868 3.693,-3.434 -0.692,-8.424 -10.176,-11.5817 -22.999,-32.1383 -29.637,-47.5091 -0.525,-1.2154 -1.278,-2.9555 -1.673,-3.867 -3.999,-9.2095 -7.698,-21.4672 -10.671,-35.3553 -3.863,-18.0504 -4.401,-40.7688 -1.425,-60.2146 1.41,-9.2175 2.274,-13.0381 5.495,-24.3068 0.782,-2.7345 1.634,-5.469 1.895,-6.0767 0.26,-0.6077 0.776,-1.9749 1.146,-3.0384 0.371,-1.0634 1.142,-2.9873 1.713,-4.2752 0.572,-1.288 1.04,-2.4934 1.04,-2.6787 0,-0.9044 6.944,-15.2774 9.851,-20.3912 1.037,-1.823 2.381,-4.1846 2.987,-5.2481 0.606,-1.0634 1.632,-2.6741 2.28,-3.5793 0.648,-0.9052 1.427,-2.0654 1.731,-2.5782 4.424,-7.4677 15.885,-21.5247 25.284,-31.01 9.448,-9.536 10.856,-10.793 24.164,-21.5807 3.698,-2.9976 21.11,-14.7246 21.863,-14.7246 0.184,0 1.001,-0.4749 1.816,-1.0553 4.354,-3.1007 25.8241,-13.7685 34.6045,-17.1944 8.4648,-3.3026 20.2122,-7.2403 28.1655,-9.4408 1.2153,-0.3363 2.8312,-0.8109 3.5908,-1.0548 2.6422,-0.8482 16.4533,-3.8612 22.3733,-4.8809 7.7233,-1.3303 10.354,-1.6963 17.9539,-2.4973 25.6336,-2.7017 37.8954,-2.7017 63.5291,0 9.2957,0.9798 13.3552,1.598 23.6163,3.5966 4.1571,0.8097 18.8065,4.2828 20.5779,4.8786 0.7596,0.2555 3.2455,1.0182 5.5242,1.6948 5.7178,1.6977 8.9179,2.7236 10.2199,3.2761 0.6077,0.2579 1.8507,0.7243 2.7622,1.0366 10.7433,3.6802 26.5049,10.8762 38.6699,17.6548 5.3589,2.986 22.3683,13.6917 22.9257,14.4293 0.1519,0.201 1.6435,1.3372 3.3146,2.5247 4.0893,2.9061 14.494,11.4431 18.1554,14.8964 20.8282,19.6446 35.3427,38.9052 46.1726,61.2705 1.9913,4.1123 3.6205,7.6291 3.6205,7.8149 0,0.1859 0.4745,1.3809 1.0543,2.6555 1.5811,3.4754 4.6187,12.1779 6.1117,17.5093 0.3829,1.3672 0.8959,3.1074 1.1401,3.867 0.2442,0.7596 0.8516,3.2455 1.3498,5.5243 0.4982,2.2787 1.0282,4.6403 1.1778,5.248 0.3001,1.2183 1.1365,6.33 1.9436,11.8772 0.2873,1.9749 0.6682,10.0542 0.8464,17.9539 0.3095,13.7208 -0.09,21.756 -1.4567,29.2786 -1.4282,7.8627 -1.7851,9.7025 -2.5721,13.2583 -1.5702,7.0939 -6.014,21.1733 -8.0098,25.3773 -0.5679,1.1964 -1.0327,2.3925 -1.0327,2.6579 0,0.9613 -8.8205,18.4907 -11.7445,23.3405 -11.602,19.2429 -24.785,35.165 -42.2753,51.059 -2.8175,2.5603 -5.6747,5.0274 -6.3493,5.4825 -0.6746,0.455 -2.2412,1.7162 -3.4813,2.8026 -4.4324,3.883 -14.6642,11.3108 -22.052,16.0089 -3.0383,1.9321 -6.1457,3.911 -6.9053,4.3976 -0.7596,0.4865 -1.8783,1.1607 -2.4859,1.4981 -0.6077,0.3375 -2.0993,1.1857 -3.3146,1.8849 -3.8521,2.2164 -18.6401,9.6926 -22.3733,11.3111 -1.9749,0.8562 -4.7095,2.0437 -6.0767,2.639 -19.2426,8.3774 -41.3234,14.2199 -64.634,17.1018 -6.693,0.8275 -263.8185,1.151 -265.7175,0.3344 z m 133.8839,-174.2324 c 6.2749,-1.6251 10.1964,-3.9476 15.2715,-9.0445 7.3193,-7.3508 10.467,-14.6423 10.4866,-24.2917 0.046,-22.4881 -21.0934,-39.1781 -42.7201,-33.7287 -22.0779,5.5629 -32.6979,29.3483 -22.3209,49.99 1.098,2.1849 3.289,4.9258 6.427,8.0423 5.0356,4.9996 8.5115,7.0985 14.7055,8.8797 4.3751,1.2582 13.583,1.3357 18.1504,0.1529 z m 104.4087,0.01 c 1.8669,-0.4793 3.6305,-1.1008 3.9191,-1.3811 0.2887,-0.2803 0.8432,-0.5096 1.2323,-0.5096 1.5408,0 7.2857,-4.2019 10.9488,-8.008 6.9397,-7.211 10.1697,-15.9787 9.5235,-25.8513 -0.9927,-15.1642 -12.1102,-28.0835 -27.1729,-31.5768 -4.9554,-1.1492 -10.1794,-1.0643 -15.3957,0.2501 -5.1105,1.2877 -7.3294,2.2604 -11.4545,5.0213 -10.4841,7.0168 -16.8534,21.1028 -14.8891,32.9281 1.6929,10.192 6.5366,18.3299 14.0391,23.5871 6.7983,4.7637 11.4645,6.2549 19.8582,6.3463 3.8617,0.042 7.2055,-0.2449 9.3912,-0.8061 z m 104.1996,0.053 c 8.0808,-2.1504 16.7137,-8.6937 20.9058,-15.8457 3.4357,-5.8615 4.6578,-10.4434 4.6906,-17.5865 0.032,-7.0095 -0.6386,-9.9938 -3.5475,-15.7826 -1.6983,-3.3798 -2.2276,-4.1079 -6.0868,-8.3731 -5.6257,-6.2176 -15.8801,-10.6472 -24.6478,-10.6472 -10.0643,0 -19.9347,4.629 -26.5188,12.4368 -1.5952,1.8916 -2.9003,3.6009 -2.9003,3.7986 0,0.1977 -0.5752,1.2867 -1.2783,2.42 -2.4685,3.9793 -3.8482,9.7715 -3.8482,16.1551 0,5.551 0.215,6.7444 2.2762,12.6346 1.0665,3.0478 4.5485,8.5253 7.1859,11.3041 3.9542,4.1661 10.2787,7.8575 16.1042,9.3996 4.0324,1.0673 13.7991,1.1151 17.665,0.086 z"
         id="path40949"
         transform="matrix(0.26458333,0,0,0.26458333,3519.8865,-1827.9375)" />
      <path
         style="opacity:1;fill:#ffffff;fill-opacity:1;stroke-width:0.551209"
         d="m -9596.7361,5914.6997 c -0.1171,-0.3798 -0.3629,-4.2952 -0.5464,-8.7008 -0.1834,-4.4056 -0.5812,-9.626 -0.884,-11.6009 -2.1108,-13.7689 -3.3565,-20.3496 -4.98,-26.3075 -0.6523,-2.3937 -1.3892,-5.2223 -1.6375,-6.2857 -0.9409,-4.0291 -5.7353,-17.6959 -8.2363,-23.4782 -20.9666,-48.4755 -55.715,-87.0019 -105.0023,-116.4187 -5.8409,-3.4861 -23.7822,-12.7048 -29.0025,-14.9023 -1.2153,-0.5115 -4.0741,-1.7135 -6.3529,-2.6709 -2.2788,-0.9575 -4.889,-2.0701 -5.8005,-2.4726 -0.9115,-0.4025 -4.2675,-1.6345 -7.4577,-2.7377 -3.1903,-1.1033 -6.2977,-2.2197 -6.9054,-2.4808 -0.6076,-0.2611 -1.602,-0.5972 -2.2097,-0.7467 -0.6077,-0.1496 -3.2179,-0.9253 -5.8005,-1.7239 -4.2205,-1.305 -9.4581,-2.7902 -14.9155,-4.2295 -1.0634,-0.2805 -3.0522,-0.7463 -4.4194,-1.0351 -1.3673,-0.2888 -4.2261,-0.9179 -6.3529,-1.398 -7.1025,-1.6033 -26.1302,-4.4657 -38.1175,-5.7343 -13.9566,-1.477 -42.9476,-1.2448 -59.9384,0.48 -6.7895,0.6892 -21.1905,2.6653 -24.0305,3.2973 -1.2154,0.2705 -3.7013,0.7735 -5.5243,1.1179 -4.3426,0.8202 -13.7951,2.9486 -17.4015,3.9182 -8.2112,2.2077 -14.1262,3.9207 -17.5395,5.0795 -4.5248,1.5362 -4.6132,1.4639 -3.4791,-2.8429 0.2893,-1.0986 1.0634,-4.1106 1.7202,-6.6932 4.6604,-18.3251 13.1975,-36.6491 25.1432,-53.9678 1.9265,-2.793 3.8642,-5.5275 4.3061,-6.0767 7.1652,-8.9059 10.7817,-12.936 18.512,-20.6291 11.1258,-11.0723 20.1487,-18.4217 33.2591,-27.0904 20.5878,-13.6129 46.4085,-25.1658 70.3843,-31.4919 1.2154,-0.3207 2.9555,-0.7966 3.867,-1.0576 1.62,-0.4639 12.7364,-2.8114 18.2301,-3.8497 7.6032,-1.437 11.4908,-1.943 25.5714,-3.3281 8.5347,-0.8396 33.816,-0.6789 43.7582,0.2782 13.1867,1.2693 23.7075,2.887 34.2105,5.2603 4.4903,1.0146 5.5381,1.2753 10.8123,2.6905 4.98,1.3362 17.2233,5.2137 19.335,6.1234 0.6077,0.2618 3.2179,1.2625 5.8005,2.2237 6.0183,2.24 6.606,2.5038 18.7323,8.4112 42.3632,20.6373 74.7249,51.8718 94.3003,91.0157 4.0878,8.1742 9.8449,23.4017 11.2782,29.831 0.2371,1.0635 0.801,3.3008 1.2533,4.9719 0.4522,1.6711 1.2341,5.5242 1.7375,8.5626 0.5034,3.0383 1.2081,7.1401 1.5659,9.115 0.9014,4.9745 0.8709,34.3929 -0.041,39.4986 -1.8039,10.1002 -3.5813,19.2412 -4.0052,20.5982 -3.8945,12.466 -5.7498,18.2195 -6.0945,18.9003 -0.2308,0.4558 -1.1227,2.5688 -1.982,4.6957 -3.471,8.5914 -10.8369,22.0331 -16.6496,30.3835 -3.6568,5.2531 -10.9935,14.8374 -13.0254,17.0156 -0.794,0.8512 -1.4437,1.7961 -1.4437,2.0998 0,0.3038 1.8023,2.5987 4.0051,5.0999 2.2028,2.5012 8.1069,9.374 13.1202,15.2729 5.0132,5.899 9.6196,11.2355 10.2363,11.8589 0.6168,0.6234 1.4868,1.6516 1.9335,2.2849 0.4467,0.6334 2.2144,2.7464 3.9281,4.6957 1.7138,1.9492 4.2674,4.8638 5.6748,6.4767 3.981,4.5626 5.0249,7.2409 4.9935,12.8116 -0.023,4.0056 -0.2439,5.1015 -1.5059,7.4577 -1.8145,3.388 -2.3244,3.999 -5.0148,6.0096 -4.0681,3.0402 -4.7864,3.1055 -34.1614,3.1055 -21.117,0 -27.0448,-0.1504 -27.2112,-0.6905 z"
         id="path40951"
         transform="matrix(0.26458333,0,0,0.26458333,3519.8865,-1827.9375)" />
    </g>
    <g
       id="g40961"
       transform="matrix(0.0404202,0,0,0.0404202,57.29084,132.43978)"
       style="opacity:0.637224;fill:#ffffff;filter:url(#filter40963)">
      <path
         style="opacity:1;fill:#ffffff;fill-opacity:1;stroke-width:0.551209"
         d="m -10102.512,6123.5465 c -0.76,-0.3266 -2.147,-0.9249 -3.084,-1.3295 -2.683,-1.1591 -6.559,-5.7036 -7.884,-9.2447 -1.395,-3.7297 -1.501,-7.4117 -0.313,-10.8617 0.907,-2.6324 2.991,-6.0666 3.685,-6.073 0.228,0 0.414,-0.2537 0.414,-0.5593 0,-0.3055 1.336,-1.9835 2.968,-3.7289 1.632,-1.7453 9.756,-11.0039 18.054,-20.5747 8.297,-9.5708 15.481,-17.7744 15.963,-18.2301 0.483,-0.4558 2.333,-2.5067 4.111,-4.5577 3.631,-4.1868 3.693,-3.434 -0.692,-8.424 -10.176,-11.5817 -22.999,-32.1383 -29.637,-47.5091 -0.525,-1.2154 -1.278,-2.9555 -1.673,-3.867 -3.999,-9.2095 -7.698,-21.4672 -10.671,-35.3553 -3.863,-18.0504 -4.401,-40.7688 -1.425,-60.2146 1.41,-9.2175 2.274,-13.0381 5.495,-24.3068 0.782,-2.7345 1.634,-5.469 1.895,-6.0767 0.26,-0.6077 0.776,-1.9749 1.146,-3.0384 0.371,-1.0634 1.142,-2.9873 1.713,-4.2752 0.572,-1.288 1.04,-2.4934 1.04,-2.6787 0,-0.9044 6.944,-15.2774 9.851,-20.3912 1.037,-1.823 2.381,-4.1846 2.987,-5.2481 0.606,-1.0634 1.632,-2.6741 2.28,-3.5793 0.648,-0.9052 1.427,-2.0654 1.731,-2.5782 4.424,-7.4677 15.885,-21.5247 25.284,-31.01 9.448,-9.536 10.856,-10.793 24.164,-21.5807 3.698,-2.9976 21.11,-14.7246 21.863,-14.7246 0.184,0 1.001,-0.4749 1.816,-1.0553 4.354,-3.1007 25.8241,-13.7685 34.6045,-17.1944 8.4648,-3.3026 20.2122,-7.2403 28.1655,-9.4408 1.2153,-0.3363 2.8312,-0.8109 3.5908,-1.0548 2.6422,-0.8482 16.4533,-3.8612 22.3733,-4.8809 7.7233,-1.3303 10.354,-1.6963 17.9539,-2.4973 25.6336,-2.7017 37.8954,-2.7017 63.5291,0 9.2957,0.9798 13.3552,1.598 23.6163,3.5966 4.1571,0.8097 18.8065,4.2828 20.5779,4.8786 0.7596,0.2555 3.2455,1.0182 5.5242,1.6948 5.7178,1.6977 8.9179,2.7236 10.2199,3.2761 0.6077,0.2579 1.8507,0.7243 2.7622,1.0366 10.7433,3.6802 26.5049,10.8762 38.6699,17.6548 5.3589,2.986 22.3683,13.6917 22.9257,14.4293 0.1519,0.201 1.6435,1.3372 3.3146,2.5247 4.0893,2.9061 14.494,11.4431 18.1554,14.8964 20.8282,19.6446 35.3427,38.9052 46.1726,61.2705 1.9913,4.1123 3.6205,7.6291 3.6205,7.8149 0,0.1859 0.4745,1.3809 1.0543,2.6555 1.5811,3.4754 4.6187,12.1779 6.1117,17.5093 0.3829,1.3672 0.8959,3.1074 1.1401,3.867 0.2442,0.7596 0.8516,3.2455 1.3498,5.5243 0.4982,2.2787 1.0282,4.6403 1.1778,5.248 0.3001,1.2183 1.1365,6.33 1.9436,11.8772 0.2873,1.9749 0.6682,10.0542 0.8464,17.9539 0.3095,13.7208 -0.09,21.756 -1.4567,29.2786 -1.4282,7.8627 -1.7851,9.7025 -2.5721,13.2583 -1.5702,7.0939 -6.014,21.1733 -8.0098,25.3773 -0.5679,1.1964 -1.0327,2.3925 -1.0327,2.6579 0,0.9613 -8.8205,18.4907 -11.7445,23.3405 -11.602,19.2429 -24.785,35.165 -42.2753,51.059 -2.8175,2.5603 -5.6747,5.0274 -6.3493,5.4825 -0.6746,0.455 -2.2412,1.7162 -3.4813,2.8026 -4.4324,3.883 -14.6642,11.3108 -22.052,16.0089 -3.0383,1.9321 -6.1457,3.911 -6.9053,4.3976 -0.7596,0.4865 -1.8783,1.1607 -2.4859,1.4981 -0.6077,0.3375 -2.0993,1.1857 -3.3146,1.8849 -3.8521,2.2164 -18.6401,9.6926 -22.3733,11.3111 -1.9749,0.8562 -4.7095,2.0437 -6.0767,2.639 -19.2426,8.3774 -41.3234,14.2199 -64.634,17.1018 -6.693,0.8275 -263.8185,1.151 -265.7175,0.3344 z m 133.8839,-174.2324 c 6.2749,-1.6251 10.1964,-3.9476 15.2715,-9.0445 7.3193,-7.3508 10.467,-14.6423 10.4866,-24.2917 0.046,-22.4881 -21.0934,-39.1781 -42.7201,-33.7287 -22.0779,5.5629 -32.6979,29.3483 -22.3209,49.99 1.098,2.1849 3.289,4.9258 6.427,8.0423 5.0356,4.9996 8.5115,7.0985 14.7055,8.8797 4.3751,1.2582 13.583,1.3357 18.1504,0.1529 z m 104.4087,0.01 c 1.8669,-0.4793 3.6305,-1.1008 3.9191,-1.3811 0.2887,-0.2803 0.8432,-0.5096 1.2323,-0.5096 1.5408,0 7.2857,-4.2019 10.9488,-8.008 6.9397,-7.211 10.1697,-15.9787 9.5235,-25.8513 -0.9927,-15.1642 -12.1102,-28.0835 -27.1729,-31.5768 -4.9554,-1.1492 -10.1794,-1.0643 -15.3957,0.2501 -5.1105,1.2877 -7.3294,2.2604 -11.4545,5.0213 -10.4841,7.0168 -16.8534,21.1028 -14.8891,32.9281 1.6929,10.192 6.5366,18.3299 14.0391,23.5871 6.7983,4.7637 11.4645,6.2549 19.8582,6.3463 3.8617,0.042 7.2055,-0.2449 9.3912,-0.8061 z m 104.1996,0.053 c 8.0808,-2.1504 16.7137,-8.6937 20.9058,-15.8457 3.4357,-5.8615 4.6578,-10.4434 4.6906,-17.5865 0.032,-7.0095 -0.6386,-9.9938 -3.5475,-15.7826 -1.6983,-3.3798 -2.2276,-4.1079 -6.0868,-8.3731 -5.6257,-6.2176 -15.8801,-10.6472 -24.6478,-10.6472 -10.0643,0 -19.9347,4.629 -26.5188,12.4368 -1.5952,1.8916 -2.9003,3.6009 -2.9003,3.7986 0,0.1977 -0.5752,1.2867 -1.2783,2.42 -2.4685,3.9793 -3.8482,9.7715 -3.8482,16.1551 0,5.551 0.215,6.7444 2.2762,12.6346 1.0665,3.0478 4.5485,8.5253 7.1859,11.3041 3.9542,4.1661 10.2787,7.8575 16.1042,9.3996 4.0324,1.0673 13.7991,1.1151 17.665,0.086 z"
         id="path40957"
         transform="matrix(0.26458333,0,0,0.26458333,3519.8865,-1827.9375)" />
      <path
         style="opacity:1;fill:#ffffff;fill-opacity:1;stroke-width:0.551209"
         d="m -9596.7361,5914.6997 c -0.1171,-0.3798 -0.3629,-4.2952 -0.5464,-8.7008 -0.1834,-4.4056 -0.5812,-9.626 -0.884,-11.6009 -2.1108,-13.7689 -3.3565,-20.3496 -4.98,-26.3075 -0.6523,-2.3937 -1.3892,-5.2223 -1.6375,-6.2857 -0.9409,-4.0291 -5.7353,-17.6959 -8.2363,-23.4782 -20.9666,-48.4755 -55.715,-87.0019 -105.0023,-116.4187 -5.8409,-3.4861 -23.7822,-12.7048 -29.0025,-14.9023 -1.2153,-0.5115 -4.0741,-1.7135 -6.3529,-2.6709 -2.2788,-0.9575 -4.889,-2.0701 -5.8005,-2.4726 -0.9115,-0.4025 -4.2675,-1.6345 -7.4577,-2.7377 -3.1903,-1.1033 -6.2977,-2.2197 -6.9054,-2.4808 -0.6076,-0.2611 -1.602,-0.5972 -2.2097,-0.7467 -0.6077,-0.1496 -3.2179,-0.9253 -5.8005,-1.7239 -4.2205,-1.305 -9.4581,-2.7902 -14.9155,-4.2295 -1.0634,-0.2805 -3.0522,-0.7463 -4.4194,-1.0351 -1.3673,-0.2888 -4.2261,-0.9179 -6.3529,-1.398 -7.1025,-1.6033 -26.1302,-4.4657 -38.1175,-5.7343 -13.9566,-1.477 -42.9476,-1.2448 -59.9384,0.48 -6.7895,0.6892 -21.1905,2.6653 -24.0305,3.2973 -1.2154,0.2705 -3.7013,0.7735 -5.5243,1.1179 -4.3426,0.8202 -13.7951,2.9486 -17.4015,3.9182 -8.2112,2.2077 -14.1262,3.9207 -17.5395,5.0795 -4.5248,1.5362 -4.6132,1.4639 -3.4791,-2.8429 0.2893,-1.0986 1.0634,-4.1106 1.7202,-6.6932 4.6604,-18.3251 13.1975,-36.6491 25.1432,-53.9678 1.9265,-2.793 3.8642,-5.5275 4.3061,-6.0767 7.1652,-8.9059 10.7817,-12.936 18.512,-20.6291 11.1258,-11.0723 20.1487,-18.4217 33.2591,-27.0904 20.5878,-13.6129 46.4085,-25.1658 70.3843,-31.4919 1.2154,-0.3207 2.9555,-0.7966 3.867,-1.0576 1.62,-0.4639 12.7364,-2.8114 18.2301,-3.8497 7.6032,-1.437 11.4908,-1.943 25.5714,-3.3281 8.5347,-0.8396 33.816,-0.6789 43.7582,0.2782 13.1867,1.2693 23.7075,2.887 34.2105,5.2603 4.4903,1.0146 5.5381,1.2753 10.8123,2.6905 4.98,1.3362 17.2233,5.2137 19.335,6.1234 0.6077,0.2618 3.2179,1.2625 5.8005,2.2237 6.0183,2.24 6.606,2.5038 18.7323,8.4112 42.3632,20.6373 74.7249,51.8718 94.3003,91.0157 4.0878,8.1742 9.8449,23.4017 11.2782,29.831 0.2371,1.0635 0.801,3.3008 1.2533,4.9719 0.4522,1.6711 1.2341,5.5242 1.7375,8.5626 0.5034,3.0383 1.2081,7.1401 1.5659,9.115 0.9014,4.9745 0.8709,34.3929 -0.041,39.4986 -1.8039,10.1002 -3.5813,19.2412 -4.0052,20.5982 -3.8945,12.466 -5.7498,18.2195 -6.0945,18.9003 -0.2308,0.4558 -1.1227,2.5688 -1.982,4.6957 -3.471,8.5914 -10.8369,22.0331 -16.6496,30.3835 -3.6568,5.2531 -10.9935,14.8374 -13.0254,17.0156 -0.794,0.8512 -1.4437,1.7961 -1.4437,2.0998 0,0.3038 1.8023,2.5987 4.0051,5.0999 2.2028,2.5012 8.1069,9.374 13.1202,15.2729 5.0132,5.899 9.6196,11.2355 10.2363,11.8589 0.6168,0.6234 1.4868,1.6516 1.9335,2.2849 0.4467,0.6334 2.2144,2.7464 3.9281,4.6957 1.7138,1.9492 4.2674,4.8638 5.6748,6.4767 3.981,4.5626 5.0249,7.2409 4.9935,12.8116 -0.023,4.0056 -0.2439,5.1015 -1.5059,7.4577 -1.8145,3.388 -2.3244,3.999 -5.0148,6.0096 -4.0681,3.0402 -4.7864,3.1055 -34.1614,3.1055 -21.117,0 -27.0448,-0.1504 -27.2112,-0.6905 z"
         id="path40959"
         transform="matrix(0.26458333,0,0,0.26458333,3519.8865,-1827.9375)" />
    </g>
  </g>
</svg>
