<?xml version="1.0" encoding="UTF-8" standalone="no"?>
<!-- Created with Inkscape (http://www.inkscape.org/) -->

<svg
   width="13.461719mm"
   height="14.056014mm"
   viewBox="0 0 13.461718 14.056014"
   version="1.1"
   id="svg55446"
   inkscape:export-filename="chat_button.png"
   inkscape:export-xdpi="96"
   inkscape:export-ydpi="96"
   sodipodi:docname="emoticons_button_hover.svg"
   inkscape:version="1.2.1 (9c6d41e410, 2022-07-14)"
   xmlns:inkscape="http://www.inkscape.org/namespaces/inkscape"
   xmlns:sodipodi="http://sodipodi.sourceforge.net/DTD/sodipodi-0.dtd"
   xmlns:xlink="http://www.w3.org/1999/xlink"
   xmlns="http://www.w3.org/2000/svg"
   xmlns:svg="http://www.w3.org/2000/svg">
  <sodipodi:namedview
     id="namedview55448"
     pagecolor="#ffffff"
     bordercolor="#999999"
     borderopacity="1"
     inkscape:showpageshadow="0"
     inkscape:pageopacity="0"
     inkscape:pagecheckerboard="0"
     inkscape:deskcolor="#d1d1d1"
     inkscape:document-units="mm"
     showgrid="false"
     inkscape:zoom="0.78127806"
     inkscape:cx="-12.79954"
     inkscape:cy="66.55761"
     inkscape:window-width="1003"
     inkscape:window-height="1041"
     inkscape:window-x="916"
     inkscape:window-y="18"
     inkscape:window-maximized="0"
     inkscape:current-layer="layer1" />
  <defs
     id="defs55443">
    <linearGradient
       inkscape:collect="always"
       xlink:href="#linearGradient22182"
       id="linearGradient29112"
       gradientUnits="userSpaceOnUse"
       gradientTransform="translate(-608.97804,317.93324)"
       x1="711.53455"
       y1="-224.01414"
       x2="711.81653"
       y2="-188.91875" />
    <linearGradient
       inkscape:collect="always"
       id="linearGradient22182">
      <stop
         style="stop-color:#ffffff;stop-opacity:1;"
         offset="0"
         id="stop22178" />
      <stop
         style="stop-color:#ffffff;stop-opacity:0;"
         offset="1"
         id="stop22180" />
    </linearGradient>
    <filter
       inkscape:collect="always"
       style="color-interpolation-filters:sRGB"
       id="filter29116"
       x="-0.66510028"
       y="-0.66509911"
       width="2.3302006"
       height="2.3301982">
      <feGaussianBlur
         inkscape:collect="always"
         stdDeviation="1.5797295"
         id="feGaussianBlur29118" />
    </filter>
  </defs>
  <g
     inkscape:label="Warstwa 1"
     inkscape:groupmode="layer"
     id="layer1"
     transform="translate(-97.307571,-123.10017)">
    <rect
       style="fill:#303030;fill-opacity:1;stroke-width:0.28679"
       id="rect29104"
       width="13.461711"
       height="14.055989"
       x="97.307571"
       y="123.10017"
       ry="2.3293049" />
    <path
       id="path29106"
       style="fill:#181818;fill-opacity:1;stroke-width:0.28679"
       d="m 97.30758,134.28556 v 0.54156 c 0,1.29044 1.03914,2.32906 2.32957,2.32906 h 8.80308 c 1.29044,0 2.32906,-1.03862 2.32906,-2.32906 v -0.54156 c 0,1.23088 -0.99068,2.22208 -2.22157,2.22208 h -9.01805 c -1.23089,0 -2.22209,-0.9912 -2.22209,-2.22208 z" />
    <rect
       style="fill:url(#linearGradient29112);fill-opacity:1;stroke-width:0.28679"
       id="rect29108"
       width="13.461711"
       height="14.055989"
       x="97.307571"
       y="123.10017"
       ry="2.3293049" />
    <path
       id="path29110"
       style="fill:#ffffff;fill-opacity:1;stroke-width:0.264"
       d="m 104.04205,127.35058 a 2.850179,2.850179 0 0 0 -2.84995,2.84995 2.850179,2.850179 0 0 0 2.84995,2.85048 2.850179,2.850179 0 0 0 2.85047,-2.85048 2.850179,2.850179 0 0 0 -2.85047,-2.84995 z m -0.94103,1.80867 a 0.338002,0.338002 0 0 1 0.33797,0.33797 0.338002,0.338002 0 0 1 -0.33797,0.33796 0.338002,0.338002 0 0 1 -0.33796,-0.33796 0.338002,0.338002 0 0 1 0.33796,-0.33797 z m 2.04639,0 a 0.338002,0.338002 0 0 1 0.33796,0.33797 0.338002,0.338002 0 0 1 -0.33796,0.33796 0.338002,0.338002 0 0 1 -0.33796,-0.33796 0.338002,0.338002 0 0 1 0.33796,-0.33797 z m -2.80138,1.51929 a 2.435252,0.94955438 0 0 0 1.71824,0.27647 2.435252,0.94955438 0 0 0 1.65675,-0.25425 c -0.1831,0.78131 -0.8799,1.33572 -1.68465,1.33584 -0.81236,-1.3e-4 -1.51538,-0.56504 -1.69034,-1.35806 z" />
    <path
       id="path29114"
       style="opacity:0.66877;fill:#ffffff;fill-opacity:1;stroke-width:0.264;filter:url(#filter29116)"
       d="m 104.04205,127.35058 a 2.850179,2.850179 0 0 0 -2.84995,2.84995 2.850179,2.850179 0 0 0 2.84995,2.85048 2.850179,2.850179 0 0 0 2.85047,-2.85048 2.850179,2.850179 0 0 0 -2.85047,-2.84995 z m -0.94103,1.80867 a 0.338002,0.338002 0 0 1 0.33797,0.33797 0.338002,0.338002 0 0 1 -0.33797,0.33796 0.338002,0.338002 0 0 1 -0.33796,-0.33796 0.338002,0.338002 0 0 1 0.33796,-0.33797 z m 2.04639,0 a 0.338002,0.338002 0 0 1 0.33796,0.33797 0.338002,0.338002 0 0 1 -0.33796,0.33796 0.338002,0.338002 0 0 1 -0.33796,-0.33796 0.338002,0.338002 0 0 1 0.33796,-0.33797 z m -2.80138,1.51929 a 2.435252,0.94955438 0 0 0 1.71824,0.27647 2.435252,0.94955438 0 0 0 1.65675,-0.25425 c -0.1831,0.78131 -0.8799,1.33572 -1.68465,1.33584 -0.81236,-1.3e-4 -1.51538,-0.56504 -1.69034,-1.35806 z" />
  </g>
</svg>
