<?xml version="1.0" encoding="UTF-8" standalone="no"?>
<!-- Created with Inkscape (http://www.inkscape.org/) -->

<svg
   width="13.46172mm"
   height="14.056036mm"
   viewBox="0 0 13.461719 14.056036"
   version="1.1"
   id="svg55446"
   inkscape:export-filename="chat_button.png"
   inkscape:export-xdpi="96"
   inkscape:export-ydpi="96"
   sodipodi:docname="home_button_hover.svg"
   inkscape:version="1.2.1 (9c6d41e410, 2022-07-14)"
   xmlns:inkscape="http://www.inkscape.org/namespaces/inkscape"
   xmlns:sodipodi="http://sodipodi.sourceforge.net/DTD/sodipodi-0.dtd"
   xmlns:xlink="http://www.w3.org/1999/xlink"
   xmlns="http://www.w3.org/2000/svg"
   xmlns:svg="http://www.w3.org/2000/svg">
  <sodipodi:namedview
     id="namedview55448"
     pagecolor="#ffffff"
     bordercolor="#999999"
     borderopacity="1"
     inkscape:showpageshadow="0"
     inkscape:pageopacity="0"
     inkscape:pagecheckerboard="0"
     inkscape:deskcolor="#d1d1d1"
     inkscape:document-units="mm"
     showgrid="false"
     inkscape:zoom="1.104894"
     inkscape:cx="17.196219"
     inkscape:cy="-1.8101284"
     inkscape:window-width="1003"
     inkscape:window-height="1041"
     inkscape:window-x="907"
     inkscape:window-y="10"
     inkscape:window-maximized="0"
     inkscape:current-layer="layer1" />
  <defs
     id="defs55443">
    <linearGradient
       inkscape:collect="always"
       xlink:href="#linearGradient22182"
       id="linearGradient46755"
       gradientUnits="userSpaceOnUse"
       gradientTransform="translate(34.975557,-97.480961)"
       x1="711.53455"
       y1="-224.01414"
       x2="711.81653"
       y2="-188.91875" />
    <linearGradient
       inkscape:collect="always"
       id="linearGradient22182">
      <stop
         style="stop-color:#ffffff;stop-opacity:1;"
         offset="0"
         id="stop22178" />
      <stop
         style="stop-color:#ffffff;stop-opacity:0;"
         offset="1"
         id="stop22180" />
    </linearGradient>
    <filter
       inkscape:collect="always"
       style="color-interpolation-filters:sRGB"
       id="filter46763"
       x="-0.7013748"
       y="-0.6323923"
       width="2.4027496"
       height="2.2647846">
      <feGaussianBlur
         inkscape:collect="always"
         stdDeviation="1.602435"
         id="feGaussianBlur46765" />
    </filter>
  </defs>
  <g
     inkscape:label="Warstwa 1"
     inkscape:groupmode="layer"
     id="layer1"
     transform="translate(-67.100999,-130.76829)">
    <g
       id="g46747"
       transform="translate(-674.16017,423.08235)">
      <rect
         style="fill:#303030;fill-opacity:1;stroke-width:0.28679"
         id="rect46741"
         width="13.461711"
         height="14.055989"
         x="741.26117"
         y="-292.31406"
         ry="2.3293049" />
      <path
         id="path46743"
         style="fill:#181818;fill-opacity:1;stroke-width:0.28679"
         d="m 741.26118,-281.12864 v 0.54156 c 0,1.29044 1.03914,2.32906 2.32957,2.32906 h 8.80308 c 1.29044,0 2.32906,-1.03862 2.32906,-2.32906 v -0.54156 c 0,1.23088 -0.99068,2.22208 -2.22157,2.22208 h -9.01805 c -1.23089,0 -2.22209,-0.9912 -2.22209,-2.22208 z" />
      <rect
         style="fill:url(#linearGradient46755);fill-opacity:1;stroke-width:0.28679"
         id="rect46745"
         width="13.461711"
         height="14.055989"
         x="741.26117"
         y="-292.31406"
         ry="2.3293049" />
    </g>
    <g
       id="g46753"
       transform="translate(-724.94241,403.07596)">
      <path
         style="opacity:1;fill:#ffffff;fill-opacity:1;stroke-width:0.0154931"
         d="m 798.1594,-262.37978 c -0.17795,-0.0615 -0.28369,-0.19664 -0.33281,-0.42555 -0.0472,-0.21987 -0.0577,-0.82023 -0.0507,-2.89599 0.005,-1.38159 0.0121,-2.04289 0.0244,-2.13398 0.0387,-0.28766 0.11122,-0.43116 0.26393,-0.52284 0.14264,-0.0856 0.33461,-0.0997 0.6775,-0.0497 0.16888,0.0246 1.51725,0.26029 1.68367,0.29428 0.37724,0.0771 0.57525,0.15837 0.72402,0.29726 0.17545,0.16378 0.24237,0.35405 0.27188,0.77297 0.0113,0.15952 0.0148,0.77466 0.0108,1.82445 -0.006,1.39885 -0.009,1.60051 -0.0323,1.72709 -0.093,0.51113 -0.30022,0.68131 -1.00487,0.82577 -0.18336,0.0375 -1.33214,0.23814 -1.60651,0.28045 -0.24657,0.0379 -0.52807,0.0407 -0.62885,0.006 z m 0.66703,-2.49942 c 0.091,-0.0766 0.0938,-0.0918 0.0938,-0.5139 0,-0.43685 -0.006,-0.46312 -0.11808,-0.5291 -0.10814,-0.0636 -0.25,-0.0205 -0.31291,0.095 -0.0225,0.0413 -0.0276,0.10281 -0.0321,0.37813 -0.007,0.40604 0.005,0.47722 0.0914,0.55515 0.0543,0.0491 0.0708,0.0553 0.14543,0.0553 0.0681,0 0.0933,-0.007 0.13248,-0.0407 z"
         id="path46749" />
      <path
         style="opacity:1;fill:#969696;fill-opacity:1;stroke-width:0.00774653"
         d="m 797.81103,-262.84869 c -0.007,-0.0376 -0.0165,-0.11077 -0.0216,-0.16261 l -0.009,-0.0943 -0.48593,-0.004 c -0.52859,-0.004 -0.63712,-0.0109 -0.79155,-0.0491 -0.14532,-0.036 -0.23352,-0.0806 -0.31857,-0.1616 -0.13914,-0.13235 -0.1982,-0.30431 -0.22557,-0.65669 -0.0111,-0.14222 -0.0113,-2.68991 -1.5e-4,-2.83372 0.0276,-0.3611 0.0875,-0.52814 0.23854,-0.66742 0.0326,-0.0301 0.0619,-0.0546 0.0654,-0.0546 0.003,0 0.0222,-0.0102 0.0419,-0.0228 0.0444,-0.0281 0.18687,-0.0742 0.27628,-0.0894 0.16085,-0.0273 0.30836,-0.0335 0.81879,-0.0345 l 0.38119,-8.2e-4 0.008,-0.0757 c 0.007,-0.0713 0.008,-0.0683 0.004,0.0497 -0.0103,0.3204 -0.0155,1.54123 -0.0122,2.87516 0.003,1.51918 0.004,1.55639 0.0174,1.75457 0.009,0.13855 0.0137,0.1805 0.0253,0.24285 0.005,0.0247 0.007,0.0468 0.004,0.0489 -0.003,0.002 -0.01,-0.0267 -0.0165,-0.0643 z"
         id="path46751" />
    </g>
    <g
       id="g46761"
       transform="translate(-724.94241,403.07596)"
       style="opacity:0.665615;filter:url(#filter46763)">
      <path
         style="opacity:1;fill:#ffffff;fill-opacity:1;stroke-width:0.0154931"
         d="m 798.1594,-262.37978 c -0.17795,-0.0615 -0.28369,-0.19664 -0.33281,-0.42555 -0.0472,-0.21987 -0.0577,-0.82023 -0.0507,-2.89599 0.005,-1.38159 0.0121,-2.04289 0.0244,-2.13398 0.0387,-0.28766 0.11122,-0.43116 0.26393,-0.52284 0.14264,-0.0856 0.33461,-0.0997 0.6775,-0.0497 0.16888,0.0246 1.51725,0.26029 1.68367,0.29428 0.37724,0.0771 0.57525,0.15837 0.72402,0.29726 0.17545,0.16378 0.24237,0.35405 0.27188,0.77297 0.0113,0.15952 0.0148,0.77466 0.0108,1.82445 -0.006,1.39885 -0.009,1.60051 -0.0323,1.72709 -0.093,0.51113 -0.30022,0.68131 -1.00487,0.82577 -0.18336,0.0375 -1.33214,0.23814 -1.60651,0.28045 -0.24657,0.0379 -0.52807,0.0407 -0.62885,0.006 z m 0.66703,-2.49942 c 0.091,-0.0766 0.0938,-0.0918 0.0938,-0.5139 0,-0.43685 -0.006,-0.46312 -0.11808,-0.5291 -0.10814,-0.0636 -0.25,-0.0205 -0.31291,0.095 -0.0225,0.0413 -0.0276,0.10281 -0.0321,0.37813 -0.007,0.40604 0.005,0.47722 0.0914,0.55515 0.0543,0.0491 0.0708,0.0553 0.14543,0.0553 0.0681,0 0.0933,-0.007 0.13248,-0.0407 z"
         id="path46757" />
      <path
         style="opacity:1;fill:#969696;fill-opacity:1;stroke-width:0.00774653"
         d="m 797.81103,-262.84869 c -0.007,-0.0376 -0.0165,-0.11077 -0.0216,-0.16261 l -0.009,-0.0943 -0.48593,-0.004 c -0.52859,-0.004 -0.63712,-0.0109 -0.79155,-0.0491 -0.14532,-0.036 -0.23352,-0.0806 -0.31857,-0.1616 -0.13914,-0.13235 -0.1982,-0.30431 -0.22557,-0.65669 -0.0111,-0.14222 -0.0113,-2.68991 -1.5e-4,-2.83372 0.0276,-0.3611 0.0875,-0.52814 0.23854,-0.66742 0.0326,-0.0301 0.0619,-0.0546 0.0654,-0.0546 0.003,0 0.0222,-0.0102 0.0419,-0.0228 0.0444,-0.0281 0.18687,-0.0742 0.27628,-0.0894 0.16085,-0.0273 0.30836,-0.0335 0.81879,-0.0345 l 0.38119,-8.2e-4 0.008,-0.0757 c 0.007,-0.0713 0.008,-0.0683 0.004,0.0497 -0.0103,0.3204 -0.0155,1.54123 -0.0122,2.87516 0.003,1.51918 0.004,1.55639 0.0174,1.75457 0.009,0.13855 0.0137,0.1805 0.0253,0.24285 0.005,0.0247 0.007,0.0468 0.004,0.0489 -0.003,0.002 -0.01,-0.0267 -0.0165,-0.0643 z"
         id="path46759" />
    </g>
  </g>
</svg>
