<?xml version="1.0" encoding="UTF-8" standalone="no"?>
<!-- Created with Inkscape (http://www.inkscape.org/) -->

<svg
   width="13.46172mm"
   height="14.056036mm"
   viewBox="0 0 13.461719 14.056036"
   version="1.1"
   id="svg55446"
   inkscape:export-filename="chat_button.png"
   inkscape:export-xdpi="96"
   inkscape:export-ydpi="96"
   sodipodi:docname="info_button_hover.svg"
   inkscape:version="1.2.1 (9c6d41e410, 2022-07-14)"
   xmlns:inkscape="http://www.inkscape.org/namespaces/inkscape"
   xmlns:sodipodi="http://sodipodi.sourceforge.net/DTD/sodipodi-0.dtd"
   xmlns:xlink="http://www.w3.org/1999/xlink"
   xmlns="http://www.w3.org/2000/svg"
   xmlns:svg="http://www.w3.org/2000/svg">
  <sodipodi:namedview
     id="namedview55448"
     pagecolor="#ffffff"
     bordercolor="#999999"
     borderopacity="1"
     inkscape:showpageshadow="0"
     inkscape:pageopacity="0"
     inkscape:pagecheckerboard="0"
     inkscape:deskcolor="#d1d1d1"
     inkscape:document-units="mm"
     showgrid="false"
     inkscape:zoom="0.78127806"
     inkscape:cx="61.437793"
     inkscape:cy="38.398621"
     inkscape:window-width="1003"
     inkscape:window-height="1041"
     inkscape:window-x="916"
     inkscape:window-y="18"
     inkscape:window-maximized="0"
     inkscape:current-layer="layer1" />
  <defs
     id="defs55443">
    <linearGradient
       inkscape:collect="always"
       xlink:href="#linearGradient22182"
       id="linearGradient42298"
       gradientUnits="userSpaceOnUse"
       gradientTransform="translate(34.975557,-97.480961)"
       x1="711.53455"
       y1="-224.01414"
       x2="711.81653"
       y2="-188.91875" />
    <linearGradient
       inkscape:collect="always"
       id="linearGradient22182">
      <stop
         style="stop-color:#ffffff;stop-opacity:1;"
         offset="0"
         id="stop22178" />
      <stop
         style="stop-color:#ffffff;stop-opacity:0;"
         offset="1"
         id="stop22180" />
    </linearGradient>
    <filter
       inkscape:collect="always"
       style="color-interpolation-filters:sRGB"
       id="filter42306"
       x="-1.1159234"
       y="-0.47372052"
       width="3.2318469"
       height="1.947441">
      <feGaussianBlur
         inkscape:collect="always"
         stdDeviation="37.673458"
         id="feGaussianBlur42308" />
    </filter>
  </defs>
  <g
     inkscape:label="Warstwa 1"
     inkscape:groupmode="layer"
     id="layer1"
     transform="translate(-77.792299,-130.80176)">
    <g
       id="g42290"
       transform="translate(-663.46887,423.11582)">
      <rect
         style="fill:#303030;fill-opacity:1;stroke-width:0.28679"
         id="rect42284"
         width="13.461711"
         height="14.055989"
         x="741.26117"
         y="-292.31406"
         ry="2.3293049" />
      <path
         id="path42286"
         style="fill:#181818;fill-opacity:1;stroke-width:0.28679"
         d="m 741.26118,-281.12864 v 0.54156 c 0,1.29044 1.03914,2.32906 2.32957,2.32906 h 8.80308 c 1.29044,0 2.32906,-1.03862 2.32906,-2.32906 v -0.54156 c 0,1.23088 -0.99068,2.22208 -2.22157,2.22208 h -9.01805 c -1.23089,0 -2.22209,-0.9912 -2.22209,-2.22208 z" />
      <rect
         style="fill:url(#linearGradient42298);fill-opacity:1;stroke-width:0.28679"
         id="rect42288"
         width="13.461711"
         height="14.055989"
         x="741.26117"
         y="-292.31406"
         ry="2.3293049" />
    </g>
    <g
       id="g42296"
       transform="matrix(0.03268429,0,0,0.03268429,59.09073,145.85971)"
       style="fill:#ffffff">
      <path
         style="opacity:1;fill:#ffffff;fill-opacity:1;stroke-width:1.55906"
         d="m -10397.071,6326.5141 c -22.703,-4.0605 -51.888,-19.0702 -69.971,-35.9856 -11.545,-10.7996 -17.319,-22.1144 -20.561,-40.2928 -4.075,-22.8487 -2.182,-67.369 4.096,-96.3294 5.743,-26.493 16.847,-70.859 30.252,-120.8659 13.41,-50.0286 14.748,-55.6567 16.473,-69.2629 2.468,-19.4617 -2.088,-28.8783 -15.773,-32.6051 -10.428,-2.8397 -33.91,-0.9422 -50.57,4.0865 -20.71,6.2508 -21.841,6.3233 -26.47,1.6946 -2.457,-2.4567 -3.999,-5.7513 -3.999,-8.5426 0,-6.6382 7.471,-42.6168 9.761,-47.01 4.759,-9.1283 66.221,-30.404 106.603,-36.9023 20.216,-3.253 56.102,-3.3668 69.574,-0.2206 28.109,6.5649 50.337,23.627 62.413,47.9095 11.22,22.5622 15.415,60.99 10.075,92.3028 -2.514,14.7411 -4.762,23.0118 -22.44,82.5442 -18.073,60.8585 -25.57,94.6952 -28.224,127.3765 -2.359,29.049 0.01,37.9706 11.482,43.1775 11.69,5.307 38.374,3.265 61.079,-4.674 25.277,-8.8385 29.836,-1.8615 20.595,31.5208 -3.03,10.9472 -6.708,21.7327 -8.173,23.9677 -4.904,7.4855 -49.846,25.1056 -88.057,34.5246 -18.116,4.4656 -52.99,6.3005 -68.165,3.5865 z"
         id="path42292"
         transform="matrix(0.26458333,0,0,0.26458333,3519.8865,-1827.9375)" />
      <path
         style="opacity:1;fill:#ffffff;fill-opacity:1;stroke-width:1.55906"
         d="m -10339.844,5783.5582 c -31.655,-8.6962 -56.56,-34.021 -64.722,-65.815 -7.493,-29.1836 1.238,-61.4847 22.535,-83.3741 23.162,-23.8069 54.691,-33.0821 85.753,-25.2272 57.345,14.5015 85.707,76.9061 58.49,128.699 -10.442,19.8727 -26.16,33.7947 -48.15,42.6485 -9.211,3.709 -13.649,4.4848 -28.125,4.9167 -11.92,0.3557 -19.821,-0.2106 -25.781,-1.8479 z"
         id="path42294"
         transform="matrix(0.26458333,0,0,0.26458333,3519.8865,-1827.9375)" />
    </g>
    <g
       id="g42304"
       transform="matrix(0.03268429,0,0,0.03268429,59.09073,145.85971)"
       style="opacity:0.662461;fill:#ffffff;filter:url(#filter42306)">
      <path
         style="opacity:1;fill:#ffffff;fill-opacity:1;stroke-width:1.55906"
         d="m -10397.071,6326.5141 c -22.703,-4.0605 -51.888,-19.0702 -69.971,-35.9856 -11.545,-10.7996 -17.319,-22.1144 -20.561,-40.2928 -4.075,-22.8487 -2.182,-67.369 4.096,-96.3294 5.743,-26.493 16.847,-70.859 30.252,-120.8659 13.41,-50.0286 14.748,-55.6567 16.473,-69.2629 2.468,-19.4617 -2.088,-28.8783 -15.773,-32.6051 -10.428,-2.8397 -33.91,-0.9422 -50.57,4.0865 -20.71,6.2508 -21.841,6.3233 -26.47,1.6946 -2.457,-2.4567 -3.999,-5.7513 -3.999,-8.5426 0,-6.6382 7.471,-42.6168 9.761,-47.01 4.759,-9.1283 66.221,-30.404 106.603,-36.9023 20.216,-3.253 56.102,-3.3668 69.574,-0.2206 28.109,6.5649 50.337,23.627 62.413,47.9095 11.22,22.5622 15.415,60.99 10.075,92.3028 -2.514,14.7411 -4.762,23.0118 -22.44,82.5442 -18.073,60.8585 -25.57,94.6952 -28.224,127.3765 -2.359,29.049 0.01,37.9706 11.482,43.1775 11.69,5.307 38.374,3.265 61.079,-4.674 25.277,-8.8385 29.836,-1.8615 20.595,31.5208 -3.03,10.9472 -6.708,21.7327 -8.173,23.9677 -4.904,7.4855 -49.846,25.1056 -88.057,34.5246 -18.116,4.4656 -52.99,6.3005 -68.165,3.5865 z"
         id="path42300"
         transform="matrix(0.26458333,0,0,0.26458333,3519.8865,-1827.9375)" />
      <path
         style="opacity:1;fill:#ffffff;fill-opacity:1;stroke-width:1.55906"
         d="m -10339.844,5783.5582 c -31.655,-8.6962 -56.56,-34.021 -64.722,-65.815 -7.493,-29.1836 1.238,-61.4847 22.535,-83.3741 23.162,-23.8069 54.691,-33.0821 85.753,-25.2272 57.345,14.5015 85.707,76.9061 58.49,128.699 -10.442,19.8727 -26.16,33.7947 -48.15,42.6485 -9.211,3.709 -13.649,4.4848 -28.125,4.9167 -11.92,0.3557 -19.821,-0.2106 -25.781,-1.8479 z"
         id="path42302"
         transform="matrix(0.26458333,0,0,0.26458333,3519.8865,-1827.9375)" />
    </g>
  </g>
</svg>
