<?xml version="1.0" encoding="UTF-8" standalone="no"?>
<!-- Created with Inkscape (http://www.inkscape.org/) -->

<svg
   width="42.529736mm"
   height="14.004339mm"
   viewBox="0 0 42.529731 14.004339"
   version="1.1"
   id="svg55446"
   inkscape:export-filename="chat_button.png"
   inkscape:export-xdpi="96"
   inkscape:export-ydpi="96"
   sodipodi:docname="quit_to_lobby_button_push.svg"
   inkscape:version="1.2.1 (9c6d41e410, 2022-07-14)"
   xmlns:inkscape="http://www.inkscape.org/namespaces/inkscape"
   xmlns:sodipodi="http://sodipodi.sourceforge.net/DTD/sodipodi-0.dtd"
   xmlns:xlink="http://www.w3.org/1999/xlink"
   xmlns="http://www.w3.org/2000/svg"
   xmlns:svg="http://www.w3.org/2000/svg">
  <sodipodi:namedview
     id="namedview55448"
     pagecolor="#ffffff"
     bordercolor="#999999"
     borderopacity="1"
     inkscape:showpageshadow="0"
     inkscape:pageopacity="0"
     inkscape:pagecheckerboard="0"
     inkscape:deskcolor="#d1d1d1"
     inkscape:document-units="mm"
     showgrid="false"
     inkscape:zoom="1.104894"
     inkscape:cx="38.012695"
     inkscape:cy="19.911412"
     inkscape:window-width="1003"
     inkscape:window-height="1041"
     inkscape:window-x="907"
     inkscape:window-y="10"
     inkscape:window-maximized="0"
     inkscape:current-layer="layer1" />
  <defs
     id="defs55443">
    <linearGradient
       inkscape:collect="always"
       id="linearGradient48624">
      <stop
         style="stop-color:#ffffff;stop-opacity:1;"
         offset="0"
         id="stop48620" />
      <stop
         style="stop-color:#ffffff;stop-opacity:0;"
         offset="1"
         id="stop48622" />
    </linearGradient>
    <linearGradient
       inkscape:collect="always"
       xlink:href="#linearGradient48624"
       id="linearGradient53526"
       gradientUnits="userSpaceOnUse"
       gradientTransform="translate(-833.17985,401.04568)"
       x1="894.61353"
       y1="-318.30618"
       x2="894.9021"
       y2="-269.78009" />
  </defs>
  <g
     inkscape:label="Warstwa 1"
     inkscape:groupmode="layer"
     id="layer1"
     transform="translate(-42.57864,-124.84806)">
    <rect
       style="fill:#303030;fill-opacity:1;stroke-width:0.275063"
       id="rect53494"
       width="42.529701"
       height="14.004313"
       x="42.578674"
       y="124.84806"
       ry="6.970849" />
    <rect
       style="fill:url(#linearGradient53526);fill-opacity:1;stroke-width:0.275063"
       id="rect53496"
       width="42.529701"
       height="14.004313"
       x="42.578674"
       y="124.84806"
       ry="7.0021567" />
    <g
       id="g53522"
       transform="matrix(0.08095911,0,0,0.08095911,-9.8618896,167.30604)"
       style="opacity:0.0819113;fill:#ffffff">
      <path
         style="opacity:1;fill:#ffffff;fill-opacity:1;stroke-width:0.291682"
         d="m 762.79975,-404.64992 c -0.83106,-0.24051 -3.81821,-3.20305 -7.59354,-7.53102 l -0.85778,-0.98317 -1.74043,0.37968 c -0.95727,0.20883 -3.25332,0.37571 -5.10223,0.37084 -13.43527,-0.0353 -22.5925,-10.01054 -21.82812,-23.77805 0.52334,-9.42266 5.84041,-16.66409 14.38592,-19.59211 2.81411,-0.96422 3.06203,-0.99777 7.4422,-1.00716 5.16282,-0.0111 6.68391,0.3061 10.78971,2.25007 2.01665,0.95475 2.90989,1.61822 4.9694,3.69083 1.38113,1.38975 2.94032,3.25927 3.46472,4.15446 2.00052,3.41524 2.98027,7.3986 2.98768,12.14729 0.0106,6.68983 -2.53921,12.89161 -6.85694,16.67843 -0.88451,0.7756 -1.60973,1.51842 -1.61158,1.65068 0,0.13227 2.12646,2.56588 4.73022,5.40803 2.60376,2.84216 4.99454,5.46352 5.31283,5.82528 l 0.57891,0.65773 -4.07061,-0.0265 c -2.23864,-0.0145 -4.48892,-0.14748 -5.00036,-0.29548 z m -10.88919,-15.05262 c 6.25554,-1.83526 9.60675,-7.04919 9.62157,-14.96976 0.0185,-9.68108 -5.2586,-15.55099 -13.97953,-15.55099 -8.27114,0 -13.78638,6.18292 -13.78638,15.45524 0,9.57789 5.25436,15.50641 13.7594,15.52514 1.71794,0.004 3.40995,-0.17357 4.38494,-0.45963 z"
         id="path53498" />
      <path
         style="opacity:1;fill:#ffffff;fill-opacity:1;stroke-width:0.291682"
         d="m 783.27003,-412.52535 c -3.03054,-0.59955 -5.41999,-2.55521 -6.8498,-5.60644 l -0.99748,-2.12807 -0.0884,-11.76613 -0.0884,-11.76613 h 3.65628 3.65654 l 0.086,11.18148 0.086,11.18145 0.703,1.13075 c 1.8116,2.91417 6.81302,2.92076 10.20947,0.0135 l 1.2192,-1.04357 v -11.23178 -11.23177 h 3.65416 3.6539 v 15.49328 15.49326 h -2.57492 c -1.60999,0 -2.75458,-0.13695 -3.05356,-0.36539 -0.26326,-0.20098 -0.65061,-1.05775 -0.86069,-1.90397 l -0.38179,-1.53855 -1.46103,1.21627 c -3.09933,2.58029 -6.86726,3.60418 -10.56852,2.87186 z"
         id="path53500" />
      <path
         style="opacity:1;fill:#ffffff;fill-opacity:1;stroke-width:0.291682"
         d="m 810.06333,-428.29883 v -15.49329 h 3.65416 3.65416 v 15.49329 15.49326 h -3.65416 -3.65416 z"
         id="path53502" />
      <path
         style="opacity:1;fill:#ffffff;fill-opacity:1;stroke-width:0.291682"
         d="m 812.2173,-448.49511 c -1.23164,-0.35703 -2.94931,-2.31114 -3.19828,-3.63905 -0.29475,-1.57068 0.29183,-3.13132 1.63195,-4.34203 1.53114,-1.38324 3.65177,-1.54231 5.49301,-0.41209 3.23771,1.98708 2.87364,6.55672 -0.64955,8.15692 -1.30678,0.59349 -1.89759,0.63609 -3.27713,0.23625 z"
         id="path53504" />
      <path
         style="opacity:1;fill:#ffffff;fill-opacity:1;stroke-width:0.103125"
         d="m 834.00388,-412.41669 c -0.0852,-0.0551 -0.31353,-0.10088 -0.50773,-0.10176 -0.49927,-0.003 -1.57269,-0.32829 -2.48947,-0.75631 -0.40375,-0.18857 -1.29275,-0.85696 -1.70709,-1.28354 -0.40455,-0.41662 -1.29011,-1.69604 -1.29011,-1.86407 0,-0.0562 -0.0979,-0.32359 -0.21775,-0.59426 -0.11959,-0.27064 -0.30559,-0.86087 -0.41328,-1.31159 -0.18468,-0.77332 -0.19579,-1.35437 -0.19579,-10.31531 0,-5.22269 -0.0389,-9.51981 -0.0863,-9.54913 -0.0474,-0.0293 -0.78,-0.0585 -1.62772,-0.0648 -1.47796,-0.0111 -2.20028,-0.112 -2.51407,-0.3514 -0.0799,-0.0611 -0.23019,-0.29715 -0.33364,-0.52451 -0.25056,-0.55102 -0.28496,-3.36042 -0.0434,-3.56084 0.082,-0.0681 0.48895,-0.16377 0.90434,-0.21259 0.4154,-0.0488 1.15041,-0.16431 1.63381,-0.25657 0.48312,-0.0923 1.16919,-0.20238 1.52452,-0.24468 0.35534,-0.0423 0.68448,-0.121 0.73131,-0.17489 0.10716,-0.12327 0.29792,-0.79664 0.37915,-1.33819 0.096,-0.64098 0.33576,-1.98228 0.517,-2.89388 0.0905,-0.45476 0.20373,-1.05936 0.25188,-1.3436 0.0482,-0.28422 0.16722,-0.93533 0.26485,-1.44693 0.0976,-0.5116 0.20055,-1.10347 0.2286,-1.31527 0.0339,-0.2544 0.19156,-0.54443 0.46461,-0.8546 l 0.41328,-0.46953 2.28891,0.0278 2.28917,0.0278 0.027,4.75011 c 0.0159,2.61255 0.0677,4.7911 0.118,4.84119 0.05,0.0501 1.88145,0.0865 4.06982,0.0809 3.54648,-0.009 3.98595,0.008 4.04204,0.15404 0.0823,0.21429 0.0823,4.73134 0,4.9456 -0.0561,0.14591 -0.46408,0.16388 -3.64304,0.16041 -1.9693,-0.003 -3.80127,-0.003 -4.07115,0 l -0.49107,0.003 v 8.97855 c 0,8.81671 0.005,8.98716 0.21114,9.45587 0.49054,1.10842 1.23481,1.55696 2.58366,1.55696 0.85328,0 0.93265,-0.0206 1.87907,-0.48723 0.54372,-0.26797 1.08611,-0.48723 1.20597,-0.48723 0.22119,0 1.04484,0.66659 1.04484,0.84574 0,0.054 0.11642,0.25067 0.2585,0.43699 0.14208,0.18632 0.25823,0.37648 0.25823,0.42259 0,0.0461 0.10822,0.22776 0.24051,0.40365 0.13202,0.1759 0.47783,0.72586 0.76808,1.22211 l 0.52785,0.90228 -0.26538,0.20876 c -0.14579,0.1148 -0.29686,0.20876 -0.33523,0.20876 -0.0384,0 -0.16007,0.0817 -0.2704,0.18145 -0.26459,0.23976 -1.719,0.98208 -2.37067,1.20996 -0.28416,0.0994 -0.60986,0.21723 -0.72337,0.26181 -1.14988,0.45093 -5.06518,0.81716 -5.52953,0.51718 z"
         id="path53506" />
      <path
         style="opacity:1;fill:#ffffff;fill-opacity:1;stroke-width:0.103125"
         d="m 871.10773,-412.43089 c -1.61132,-0.28417 -2.64584,-0.67321 -3.57373,-1.34364 -1.15385,-0.83383 -2.15953,-2.19162 -2.54079,-3.43045 -0.51938,-1.6868 -0.50007,-1.24788 -0.50007,-11.43855 0,-5.33022 -0.04,-9.5204 -0.0908,-9.55183 -0.0497,-0.0308 -0.78237,-0.0595 -1.62772,-0.0637 -1.46976,-0.007 -2.19286,-0.10811 -2.50957,-0.34986 -0.0802,-0.0611 -0.23019,-0.29715 -0.33364,-0.52451 -0.15425,-0.33893 -0.18838,-0.68746 -0.1905,-1.93423 0,-1.75538 -0.0389,-1.69254 1.07262,-1.84534 0.34687,-0.0476 1.07236,-0.16325 1.61237,-0.25691 0.54002,-0.0936 1.23772,-0.20148 1.55046,-0.23966 0.31248,-0.0382 0.6186,-0.10107 0.67972,-0.13975 0.0614,-0.0387 0.16298,-0.31668 0.22595,-0.61775 0.0627,-0.30107 0.17039,-0.80322 0.23892,-1.11585 0.0685,-0.31266 0.1606,-0.82426 0.20479,-1.13689 0.0442,-0.31263 0.15478,-0.894 0.2458,-1.29191 0.091,-0.39791 0.21034,-1.02579 0.26511,-1.39528 0.0545,-0.36946 0.17277,-1.04386 0.2622,-1.4986 0.0894,-0.45477 0.18944,-1.01187 0.22172,-1.23804 0.0659,-0.45871 0.26723,-0.81703 0.65299,-1.16218 0.25268,-0.22617 0.30745,-0.23066 2.53206,-0.20738 l 2.27383,0.0238 0.0267,4.75012 c 0.0159,2.61255 0.0672,4.79044 0.11668,4.83973 0.0492,0.0493 1.88119,0.0869 4.07114,0.0837 3.51711,-0.005 3.9886,0.013 4.04336,0.15549 0.0815,0.21215 0.0804,4.73015 0,4.9425 -0.0558,0.14515 -0.4445,0.16357 -3.38481,0.16036 -1.82695,-0.003 -3.65892,-0.003 -4.07114,0 l -0.7493,0.003 v 8.91418 c 0,9.98884 -0.0323,9.54696 0.74427,10.32777 0.62971,0.63286 0.93504,0.74269 2.04682,0.73573 0.95541,-0.006 1.00753,-0.0191 1.93648,-0.48345 0.5252,-0.26252 1.04669,-0.4773 1.15914,-0.4773 0.23574,0 0.90884,0.55784 1.05225,0.87209 0.0534,0.11721 0.28019,0.49215 0.50377,0.83323 0.2233,0.34104 0.4818,0.76911 0.57388,0.95125 0.0923,0.18214 0.23336,0.3855 0.31326,0.45191 0.0802,0.0664 0.14552,0.16404 0.14552,0.21693 0,0.0529 0.1143,0.26427 0.254,0.46972 0.13944,0.20542 0.2286,0.41412 0.19791,0.46378 -0.0307,0.0496 -0.2495,0.21162 -0.4863,0.35992 -0.2368,0.1483 -0.45376,0.29845 -0.48234,0.33366 -0.0971,0.12049 -1.70471,0.90882 -2.22197,1.0898 -0.28443,0.0994 -0.60986,0.21611 -0.72363,0.25934 -1.19857,0.45582 -4.41193,0.73896 -5.73591,0.50543 z"
         id="path53508" />
      <path
         style="opacity:1;fill:#ffffff;fill-opacity:1;stroke-width:0.103125"
         d="m 896.99747,-412.4196 c -0.22728,-0.0487 -0.61595,-0.0912 -0.8636,-0.0945 -0.62786,-0.008 -2.81808,-0.50501 -3.24326,-0.73549 -0.0987,-0.0535 -0.25453,-0.0973 -0.34661,-0.0973 -0.21643,0 -2.93608,-1.34739 -2.93608,-1.4547 0,-0.0449 -0.0849,-0.10859 -0.18865,-0.14147 -0.10371,-0.0329 -0.27807,-0.14142 -0.38761,-0.24115 -0.10954,-0.0997 -0.33867,-0.28903 -0.50906,-0.42066 -1.05463,-0.81404 -2.42676,-2.37892 -3.00434,-3.42643 -0.1098,-0.19894 -0.22278,-0.38499 -0.25136,-0.41341 -0.0577,-0.0578 -0.57097,-1.12382 -0.77126,-1.60197 -0.0714,-0.17053 -0.17912,-0.42633 -0.23918,-0.56843 -0.48472,-1.14589 -0.81889,-2.72921 -1.025,-4.8576 -0.23071,-2.3813 -0.0368,-4.95837 0.52996,-7.04614 0.23601,-0.86998 0.35693,-1.25436 0.48128,-1.53215 0.0638,-0.14211 0.17568,-0.39791 0.24897,-0.56843 0.93425,-2.17421 1.9648,-3.64294 3.51738,-5.01261 0.60007,-0.52933 1.57321,-1.24024 1.69756,-1.24024 0.0593,0 0.10795,-0.0411 0.10795,-0.0913 0,-0.0502 0.0812,-0.11806 0.18071,-0.15079 0.0995,-0.0327 0.38444,-0.17497 0.63315,-0.31607 0.90117,-0.51136 2.37225,-1.07 3.5269,-1.33948 1.51923,-0.35454 2.68128,-0.4794 4.40531,-0.47331 0.95938,0.003 1.9767,0.0503 2.26086,0.10435 0.28443,0.054 0.77259,0.14113 1.08532,0.19362 0.86942,0.14602 1.5203,0.29784 1.72588,0.40256 0.10239,0.0521 0.37227,0.15232 0.59955,0.2227 0.22727,0.0704 0.57626,0.19757 0.77523,0.28266 2.90565,1.24301 4.876,2.96754 6.58627,5.76426 0.35586,0.58198 1.10675,2.27965 1.23402,2.79054 0.0286,0.11369 0.0902,0.29972 0.13758,0.41341 0.21537,0.51792 0.40031,1.41994 0.61463,2.99722 0.14605,1.07405 0.14631,4.43207 0,5.42603 -0.24157,1.64565 -0.28972,1.9218 -0.38709,2.2221 -0.0553,0.17052 -0.15743,0.51935 -0.22701,0.77512 -0.14102,0.51853 -0.34184,1.06336 -0.64638,1.75374 -0.11192,0.25403 -0.24368,0.55631 -0.29289,0.6718 -0.0492,0.1155 -0.2294,0.44252 -0.40058,0.72674 -0.17119,0.28421 -0.35322,0.60978 -0.40455,0.72347 -0.0511,0.11369 -0.19156,0.2953 -0.31168,0.4036 -0.12012,0.10827 -0.21854,0.26067 -0.21854,0.33864 0,0.078 -0.52335,0.66876 -1.16285,1.31289 -1.10913,1.1172 -1.86875,1.73775 -2.66171,2.17455 -0.1987,0.10941 -0.38444,0.22569 -0.41301,0.2584 -0.0675,0.0778 -0.64479,0.36086 -1.29196,0.63341 -1.3851,0.58354 -3.35095,1.07788 -4.75404,1.19555 -1.35572,0.11366 -2.96915,0.13081 -3.41074,0.0362 z m 3.97907,-5.88459 c 0.36962,-0.12587 0.83476,-0.30322 1.03373,-0.39408 0.43709,-0.19968 1.86028,-1.24645 1.86028,-1.36829 0,-0.0478 0.0653,-0.15229 0.14552,-0.2323 0.23204,-0.23225 0.84191,-1.22291 1.06442,-1.72964 0.57706,-1.31386 0.81836,-2.35108 0.97367,-4.18578 0.1135,-1.33993 0.0392,-4.77417 -0.11827,-5.46566 -0.0534,-0.234 -0.1479,-0.63476 -0.21034,-0.89056 -0.0622,-0.25577 -0.13706,-0.58134 -0.16616,-0.72345 -0.0945,-0.46302 -0.58764,-1.58771 -0.98214,-2.24094 -0.6977,-1.15533 -1.27899,-1.71546 -2.47941,-2.38964 -1.13003,-0.63471 -3.71607,-0.94541 -5.27341,-0.63352 -0.6895,0.13814 -1.55284,0.40717 -1.68222,0.5243 -0.054,0.0489 -0.15319,0.0889 -0.22066,0.0889 -0.25665,0 -1.40547,0.8672 -1.96056,1.47976 -0.49583,0.54745 -0.92896,1.29429 -1.38907,2.39599 -0.75591,1.81044 -1.10939,5.19549 -0.8202,7.85482 0.14896,1.36982 0.61013,3.36915 0.83317,3.61217 0.0495,0.054 0.09,0.17774 0.09,0.27498 0,0.29506 0.82656,1.65666 1.3327,2.19533 0.96997,1.03227 1.9304,1.58625 3.31814,1.91412 0.25586,0.0604 0.55827,0.13195 0.67178,0.15897 0.11377,0.027 0.90435,0.0343 1.7571,0.0161 1.26947,-0.0269 1.6719,-0.0743 2.22197,-0.2617 z"
         id="path53510" />
      <path
         style="opacity:1;fill:#ffffff;fill-opacity:1;stroke-width:0.103125"
         d="m 976.57924,-412.41727 c -0.22738,-0.05 -0.62272,-0.093 -0.87852,-0.0955 -0.97417,-0.01 -3.77817,-0.76089 -4.67529,-1.25251 -0.0987,-0.0541 -0.22329,-0.0983 -0.27684,-0.0983 -0.21079,0 -1.95178,-1.1103 -2.90269,-1.85116 -0.58407,-0.45508 -1.86137,-1.7953 -2.05396,-2.15516 -0.0633,-0.11827 -0.17449,-0.27681 -0.24712,-0.3523 -0.3674,-0.3819 -1.25558,-2.01673 -1.67484,-3.08279 -0.10062,-0.2558 -0.22138,-0.55811 -0.26834,-0.6718 -0.047,-0.11369 -0.16132,-0.48575 -0.25408,-0.82683 -0.0928,-0.34107 -0.20754,-0.75964 -0.25508,-0.93017 -0.0475,-0.17052 -0.1636,-0.7984 -0.25795,-1.39528 -0.28982,-1.83327 -0.13848,-6.51398 0.2522,-7.80063 0.0522,-0.1719 0.17556,-0.61486 0.27411,-0.98435 0.0986,-0.36949 0.21783,-0.71596 0.26509,-0.76997 0.0472,-0.054 0.0859,-0.18253 0.0859,-0.28564 0,-0.10308 0.045,-0.26818 0.0999,-0.3669 0.0549,-0.0987 0.23767,-0.48437 0.40606,-0.85704 0.3816,-0.84465 1.25206,-2.25792 1.81009,-2.93893 0.52906,-0.64564 1.58776,-1.70617 1.70323,-1.70617 0.0476,0 0.19762,-0.10676 0.33327,-0.23723 0.64759,-0.62293 3.36597,-2.14119 3.83204,-2.14024 0.0961,2.1e-4 0.20351,-0.0461 0.23865,-0.103 0.0351,-0.0568 0.17465,-0.10335 0.31007,-0.10335 0.13538,0 0.27164,-0.0412 0.30281,-0.0916 0.0311,-0.0504 0.23154,-0.12298 0.44535,-0.16129 0.21378,-0.0383 0.52824,-0.11073 0.69876,-0.161 1.4274,-0.42061 5.1334,-0.56041 6.79337,-0.2563 1.57916,0.28932 2.54378,0.54115 3.43857,0.8977 0.84379,0.33624 2.20636,1.02431 2.33474,1.17899 0.0656,0.0791 0.16216,0.14382 0.21447,0.14382 0.42794,0 3.09406,2.53495 3.75015,3.56569 0.21712,0.34105 0.47149,0.73639 0.56531,0.87849 0.35764,0.54179 1.05955,2.0922 1.31011,2.89388 0.64405,2.0605 0.85127,3.3296 0.9366,5.73609 0.0493,1.38888 -0.10829,3.04483 -0.47196,4.96094 -0.33766,1.77895 -1.44114,4.26887 -2.53648,5.72344 -0.23019,0.30567 -0.48813,0.6545 -0.5732,0.77512 -0.35552,0.50424 -1.86322,1.86889 -2.53251,2.29225 -0.17052,0.10784 -0.33332,0.22156 -0.36174,0.25265 -0.0826,0.0904 -1.57038,0.93009 -1.6479,0.93009 -0.0387,0 -0.26133,0.0923 -0.49483,0.20513 -1.09148,0.52734 -2.93171,1.00179 -4.47185,1.15292 -1.51905,0.14909 -3.10976,0.18846 -3.56566,0.0883 z m 3.669,-5.81541 c 1.02325,-0.3157 1.45312,-0.52284 2.17043,-1.04598 0.71335,-0.52025 0.69096,-0.49757 1.28524,-1.30291 0.49306,-0.66818 1.0441,-1.73358 1.20277,-2.32542 0.58288,-2.17408 0.71747,-3.17286 0.7166,-5.31731 0,-2.22509 -0.21394,-3.89691 -0.68162,-5.34855 -0.14637,-0.45429 -0.51054,-1.3163 -0.66815,-1.58147 -0.0507,-0.0853 -0.1737,-0.31715 -0.27337,-0.51533 -0.29593,-0.5883 -1.66878,-1.87782 -2.35344,-2.21059 -0.70347,-0.34189 -0.98605,-0.4364 -1.91516,-0.6405 -1.13615,-0.24958 -3.44495,-0.16113 -4.28919,0.1643 -0.11369,0.0438 -0.43002,0.15912 -0.70299,0.25623 -0.27295,0.0971 -0.73803,0.33787 -1.03352,0.53506 -0.57206,0.38172 -1.62245,1.36115 -1.62245,1.51286 0,0.05 -0.10464,0.23696 -0.23254,0.41548 -0.59569,0.83135 -1.08149,2.08915 -1.32406,3.42805 -0.0515,0.28424 -0.13888,0.72607 -0.1942,0.98187 -0.12322,0.56991 -0.13084,5.1444 -0.01,5.78776 0.0482,0.2558 0.1346,0.72088 0.19198,1.03351 0.10719,0.5837 0.50869,1.8777 0.75362,2.4288 0.32393,0.72884 1.03793,1.70206 1.68111,2.29142 0.66553,0.60984 1.60488,1.17089 1.96035,1.17089 0.0938,0 0.17057,0.039 0.17057,0.0868 0,0.0477 0.33719,0.14499 0.7493,0.21614 0.41212,0.0711 0.81907,0.14578 0.90435,0.16584 0.37621,0.0885 3.0889,-0.0558 3.51398,-0.18693 z"
         id="path53512" />
      <path
         style="opacity:1;fill:#ffffff;fill-opacity:1;stroke-width:0.103125"
         d="m 935.59981,-434.57321 c 0,-17.54376 0.0257,-21.76434 0.13234,-21.85294 0.19667,-0.16323 7.64096,-0.14955 7.74512,0.0143 0.0426,0.0671 0.0783,8.38724 0.0791,18.4893 0.003,18.05262 0.005,18.36915 0.20148,18.47432 0.13319,0.0713 3.04869,0.10697 8.73334,0.10697 h 8.5334 v 3.25562 3.25561 h -12.71241 -12.71241 z"
         id="path53514" />
      <path
         style="opacity:1;fill:#ffffff;fill-opacity:1;stroke-width:0.145841"
         d="m 1012.7915,-412.45439 c -0.5947,-0.0869 -1.6888,-0.35203 -2.0462,-0.49599 -1.637,-0.65913 -2.7779,-1.4083 -3.7615,-2.46999 -0.3806,-0.41082 -0.7456,-0.74694 -0.8112,-0.74694 -0.1255,0 -0.47,1.47566 -0.47,2.01366 0,0.17336 -0.2324,0.54761 -0.5164,0.83164 l -0.5165,0.51644 h -2.7722 -2.77221 v -22.43601 -22.43603 h 3.65411 3.654 v 8.68807 c 0,5.39806 0.053,8.72093 0.1405,8.77488 0.077,0.0477 0.3896,-0.15361 0.6943,-0.44743 1.7742,-1.71138 3.8878,-2.84338 6.3659,-3.40945 0.8965,-0.20479 3.7693,-0.20564 4.5485,-0.003 1.467,0.38463 1.8137,0.50051 2.5017,0.83616 1.6191,0.78984 3.2029,2.1816 4.087,3.59151 0.1577,0.25149 0.3292,0.49012 0.3812,0.53031 0.3353,0.25937 1.5308,3.25665 1.8655,4.67722 0.6924,2.93883 0.6944,8.03638 0,10.74298 -0.082,0.32155 -0.216,0.84776 -0.2979,1.1693 -0.082,0.32155 -0.2082,0.69887 -0.2808,0.83847 -0.072,0.13959 -0.1319,0.32882 -0.1319,0.42053 0,0.29464 -1.0557,2.36323 -1.7441,3.41746 -1.4869,2.27722 -3.9855,4.21137 -6.2948,4.87296 -0.3618,0.10364 -0.8551,0.25295 -1.0963,0.33179 -0.4755,0.1555 -3.6722,0.29387 -4.3849,0.18979 z m 2.2389,-5.85557 c 0.3726,-0.12653 1.0625,-0.49144 1.5329,-0.81092 1.0064,-0.6834 1.859,-1.89672 2.5465,-3.62376 0.6116,-1.53623 0.8407,-3.22559 0.8328,-6.13884 -0.011,-4.0727 -0.6401,-6.32243 -2.2319,-7.98314 -1.1575,-1.20756 -2.4656,-1.70241 -4.4611,-1.68759 -2.3019,0.0172 -3.8692,0.73985 -5.786,2.66806 l -1.0302,1.03629 v 7.06001 7.06001 l 0.8737,0.80883 c 1.0493,0.97152 2.4709,1.70318 3.6189,1.86259 1.1466,0.15922 3.2795,0.0285 4.1044,-0.25154 z"
         id="path53516" />
      <path
         style="opacity:1;fill:#ffffff;fill-opacity:1;stroke-width:0.145841"
         d="m 1047.0668,-412.50874 c -2.3394,-0.34652 -4.3434,-1.42872 -5.8953,-3.18354 -0.231,-0.26128 -0.5119,-0.47503 -0.6241,-0.47503 -0.1325,0 -0.2047,0.16671 -0.2059,0.47503 0,0.59555 -0.3282,1.84002 -0.5934,2.26454 -0.347,0.55573 -0.8054,0.63132 -3.5727,0.58915 l -2.6287,-0.0401 -0.035,-22.39947 -0.035,-22.39949 h 3.7218 3.7218 v 8.71599 c 0,4.79377 0.031,8.74752 0.069,8.78607 0.039,0.0385 0.4984,-0.31298 1.0219,-0.78118 1.7413,-1.5575 3.5014,-2.48862 5.7878,-3.0619 0.9636,-0.24159 3.8909,-0.27514 4.7334,-0.0542 1.4863,0.38967 1.8228,0.50548 2.64,0.90847 2.6257,1.29476 4.6406,3.71853 5.6752,6.82659 0.3502,1.05193 0.4514,1.4306 0.8597,3.21559 0.2574,1.12514 0.2583,6.78788 0,8.03897 -0.6793,3.30663 -1.0044,4.2364 -2.2605,6.46416 -0.801,1.42079 -2.0459,2.86168 -3.3182,3.84072 -0.8678,0.66776 -2.7394,1.68048 -3.1058,1.68048 -0.1137,0 -0.256,0.0493 -0.3162,0.10951 -0.3982,0.39814 -4.0772,0.71104 -5.6396,0.47963 z m 1.2423,-5.54606 c 2.4851,-0.36174 4.3966,-2.12974 5.2616,-4.86637 0.6628,-2.0972 0.7314,-2.67571 0.7244,-6.10849 -0.01,-2.61837 -0.056,-3.4525 -0.2479,-4.09255 -0.1326,-0.44215 -0.3109,-1.04111 -0.3962,-1.33101 -0.2186,-0.74232 -1.1643,-2.15247 -1.8671,-2.78408 -1.0184,-0.91514 -2.2668,-1.32218 -4.0553,-1.32218 -2.221,0 -3.7438,0.664 -5.5979,2.44092 l -1.2201,1.1693 v 7.162 7.16198 l 0.8275,0.75912 c 1.7234,1.58094 3.9461,2.19358 6.5718,1.81136 z"
         id="path53518" />
      <path
         style="opacity:1;fill:#ffffff;fill-opacity:1;stroke-width:0.145841"
         d="m 1070.4529,-402.81062 c 0,-0.16105 1.2936,-2.9855 3.0865,-6.73872 0.3925,-0.82175 0.7137,-1.52096 0.7137,-1.5538 0,-0.0329 0.4001,-0.90368 0.889,-1.93519 1.003,-2.11587 1.0014,-2.08915 0.2309,-3.7402 -0.7196,-1.5418 -1.1199,-2.44464 -1.1199,-2.52571 0,-0.0389 -0.1569,-0.41778 -0.3487,-0.84201 -0.4297,-0.95083 -0.9337,-2.08923 -1.1827,-2.67147 -0.1031,-0.24117 -0.3591,-0.81701 -0.5689,-1.27966 -0.2098,-0.46262 -0.5532,-1.25193 -0.7632,-1.75395 -0.21,-0.50205 -0.5396,-1.26005 -0.7324,-1.68449 -0.1928,-0.42442 -0.3505,-0.80341 -0.3505,-0.8422 0,-0.0388 -0.2219,-0.54658 -0.493,-1.12845 -0.834,-1.78943 -1.261,-2.74357 -1.261,-2.81744 0,-0.0389 -0.1392,-0.38238 -0.3093,-0.76338 -0.1702,-0.38097 -0.3952,-0.88997 -0.5,-1.13114 -0.1049,-0.24117 -0.7265,-1.65532 -1.3814,-3.14251 -0.6548,-1.48722 -1.3953,-3.19733 -1.6454,-3.80024 -0.2502,-0.60293 -0.5746,-1.31199 -0.721,-1.5757 -0.1465,-0.26371 -0.2663,-0.60902 -0.2663,-0.76737 0,-0.27778 0.1139,-0.28784 3.2522,-0.28705 3.4715,0 4.1073,0.0891 4.6271,0.64252 0.2537,0.26998 1.6851,3.50319 2.3037,5.20319 0.044,0.12057 0.1645,0.41656 0.2681,0.65773 0.1953,0.45444 0.7502,1.8275 0.9452,2.3386 0.153,0.40121 0.3712,0.92715 0.6366,1.53471 0.9124,2.08881 3.1962,7.87763 3.4598,8.76977 0.1782,0.60294 0.3545,1.19489 0.3919,1.31549 0.056,0.18028 0.1052,0.16883 0.2769,-0.0645 0.1148,-0.15605 0.2088,-0.39881 0.2088,-0.53949 0,-0.14068 0.066,-0.29641 0.1462,-0.3461 0.08,-0.0497 0.1461,-0.21889 0.1461,-0.37603 0,-0.1571 0.06,-0.39989 0.1337,-0.53948 0.1195,-0.22667 0.4464,-1.07045 2.3073,-5.95416 0.2757,-0.7235 0.5564,-1.447 0.6237,-1.60779 0.1316,-0.31422 0.4983,-1.25886 1.4749,-3.80024 0.3399,-0.88429 0.7011,-1.80512 0.8028,-2.04629 0.1018,-0.24116 0.4996,-1.26063 0.8841,-2.26552 0.8213,-2.14648 1.2615,-2.70055 2.2598,-2.84429 0.3569,-0.0514 1.8657,-0.0737 3.3529,-0.0497 l 2.704,0.0438 -0.051,0.36542 c -0.028,0.20095 -0.1,0.43116 -0.1595,0.51157 -0.06,0.0804 -0.2162,0.42288 -0.3475,0.76113 -0.1313,0.33824 -0.3796,0.93019 -0.5517,1.31545 -0.5965,1.3349 -0.7175,1.62206 -0.7175,1.70262 0,0.0446 -0.19,0.49501 -0.4223,1.00105 -0.7121,1.55139 -1.0456,2.31373 -1.3486,3.08245 -0.1599,0.40556 -0.4118,1.00574 -0.5599,1.33379 -0.2186,0.48438 -1.1826,2.74085 -2.5651,6.00446 -0.1022,0.24117 -0.3165,0.73445 -0.4761,1.09622 -0.1597,0.36174 -0.7336,1.71011 -1.2752,2.99633 -0.5417,1.28624 -1.1422,2.68589 -1.3345,3.11031 -0.1923,0.42441 -0.3496,0.80081 -0.3496,0.83642 0,0.0356 -0.1723,0.44477 -0.3829,0.90919 -0.2107,0.46445 -0.4666,1.04177 -0.5687,1.28294 -0.6028,1.42311 -1.1273,2.6689 -1.2309,2.92325 -0.065,0.16078 -0.2549,0.5883 -0.4208,0.95006 -0.166,0.36177 -0.6433,1.4799 -1.0607,2.48478 -0.4173,1.00487 -0.8895,2.12302 -1.0492,2.48476 -0.4067,0.92125 -0.6087,1.39433 -1.0612,2.48478 -0.8233,1.9843 -1.0895,2.45875 -1.6291,2.90357 l -0.5559,0.45817 h -3.1823 c -1.7502,0 -3.1822,-0.0406 -3.1822,-0.0903 z"
         id="path53520" />
    </g>
    <path
       id="path53524"
       style="fill:#181818;fill-opacity:1;stroke-width:0.275063"
       d="m 42.57864,131.76136 v 0.62115 c 0,3.58437 2.88552,6.46989 6.46989,6.46989 h 29.58992 c 3.58437,0 6.46989,-2.88552 6.46989,-6.46989 v -0.62115 c 0,3.58437 -2.88552,6.46989 -6.46989,6.46989 H 49.04853 c -3.58437,0 -6.46989,-2.88552 -6.46989,-6.46989 z" />
  </g>
</svg>
