<?xml version="1.0" encoding="UTF-8" standalone="no"?>
<!-- Created with Inkscape (http://www.inkscape.org/) -->

<svg
   width="13.46172mm"
   height="14.056036mm"
   viewBox="0 0 13.461719 14.056036"
   version="1.1"
   id="svg55446"
   inkscape:export-filename="chat_button.png"
   inkscape:export-xdpi="96"
   inkscape:export-ydpi="96"
   sodipodi:docname="sound_on_button_hover.svg"
   inkscape:version="1.2.1 (9c6d41e410, 2022-07-14)"
   xmlns:inkscape="http://www.inkscape.org/namespaces/inkscape"
   xmlns:sodipodi="http://sodipodi.sourceforge.net/DTD/sodipodi-0.dtd"
   xmlns:xlink="http://www.w3.org/1999/xlink"
   xmlns="http://www.w3.org/2000/svg"
   xmlns:svg="http://www.w3.org/2000/svg">
  <sodipodi:namedview
     id="namedview55448"
     pagecolor="#ffffff"
     bordercolor="#999999"
     borderopacity="1"
     inkscape:showpageshadow="0"
     inkscape:pageopacity="0"
     inkscape:pagecheckerboard="0"
     inkscape:deskcolor="#d1d1d1"
     inkscape:document-units="mm"
     showgrid="false"
     inkscape:zoom="4.419576"
     inkscape:cx="29.753985"
     inkscape:cy="37.78643"
     inkscape:window-width="1003"
     inkscape:window-height="1041"
     inkscape:window-x="901"
     inkscape:window-y="0"
     inkscape:window-maximized="0"
     inkscape:current-layer="layer1" />
  <defs
     id="defs55443">
    <linearGradient
       inkscape:collect="always"
       xlink:href="#linearGradient22182"
       id="linearGradient43686"
       gradientUnits="userSpaceOnUse"
       gradientTransform="translate(34.975557,-97.480961)"
       x1="711.53455"
       y1="-224.01414"
       x2="711.81653"
       y2="-188.91875" />
    <linearGradient
       inkscape:collect="always"
       id="linearGradient22182">
      <stop
         style="stop-color:#ffffff;stop-opacity:1;"
         offset="0"
         id="stop22178" />
      <stop
         style="stop-color:#ffffff;stop-opacity:0;"
         offset="1"
         id="stop22180" />
    </linearGradient>
    <filter
       inkscape:collect="always"
       style="color-interpolation-filters:sRGB"
       id="filter43696"
       x="-0.60395276"
       y="-0.74002297"
       width="2.2079055"
       height="2.4800459">
      <feGaussianBlur
         inkscape:collect="always"
         stdDeviation="50.734709"
         id="feGaussianBlur43698" />
    </filter>
  </defs>
  <g
     inkscape:label="Warstwa 1"
     inkscape:groupmode="layer"
     id="layer1"
     transform="translate(-75.337029,-127.67757)">
    <g
       id="g43676"
       transform="translate(-665.92414,419.99163)">
      <rect
         style="fill:#303030;fill-opacity:1;stroke-width:0.28679"
         id="rect43670"
         width="13.461711"
         height="14.055989"
         x="741.26117"
         y="-292.31406"
         ry="2.3293049" />
      <path
         id="path43672"
         style="fill:#181818;fill-opacity:1;stroke-width:0.28679"
         d="m 741.26118,-281.12864 v 0.54156 c 0,1.29044 1.03914,2.32906 2.32957,2.32906 h 8.80308 c 1.29044,0 2.32906,-1.03862 2.32906,-2.32906 v -0.54156 c 0,1.23088 -0.99068,2.22208 -2.22157,2.22208 h -9.01805 c -1.23089,0 -2.22209,-0.9912 -2.22209,-2.22208 z" />
      <rect
         style="fill:url(#linearGradient43686);fill-opacity:1;stroke-width:0.28679"
         id="rect43674"
         width="13.461711"
         height="14.055989"
         x="741.26117"
         y="-292.31406"
         ry="2.3293049" />
    </g>
    <g
       id="g43684"
       transform="matrix(0.03221909,0,0,0.03221909,56.83422,142.87899)"
       style="fill:#ffffff">
      <path
         style="opacity:1;fill:#ffffff;fill-opacity:1;stroke-width:1.10242"
         d="m -10399.622,6226.0104 c -3.442,-1.1372 -7.917,-3.1072 -9.944,-4.3776 -2.027,-1.2705 -39.979,-38.6265 -84.338,-83.0132 l -80.651,-80.7032 h -58.622 c -56.656,0 -58.853,-0.078 -65.5,-2.3229 -7.881,-2.6612 -17.338,-10.5317 -21.796,-18.1385 -5.738,-9.7923 -5.911,-12.8535 -5.927,-104.9052 0,-51.592 0.422,-87.8616 1.093,-92.1001 2.233,-14.088 10.328,-25.1744 22.906,-31.368 l 7.361,-3.6245 60.239,-0.3041 60.24,-0.3041 81.207,-81.0748 c 65.997,-65.8896 82.322,-81.6299 87.163,-84.0384 21.483,-10.69 46.423,-1.8162 57.334,20.3994 l 3.001,6.1103 v 265.1883 265.1883 l -3.618,7.348 c -9.172,18.6311 -31.185,28.3061 -50.148,22.0403 z"
         id="path43678"
         transform="matrix(0.26458333,0,0,0.26458333,3519.8865,-1827.9375)" />
      <path
         style="opacity:1;fill:#ffffff;fill-opacity:1;stroke-width:1.10242"
         d="m -10252.615,6120.554 c -7.511,-3.1532 -11.772,-6.0989 -16.327,-11.2859 -10.011,-11.4022 -13.276,-29.0133 -7.947,-42.8727 1.875,-4.8789 7.374,-12.3528 16.286,-22.1381 20.335,-22.3261 35.367,-53.147 40.871,-83.801 2.471,-13.7621 2.497,-42.9745 0.05,-57.2195 -5.427,-31.5989 -20.843,-62.6833 -43.18,-87.0621 -10.285,-11.2261 -14.401,-18.3716 -16.198,-28.119 -3.169,-17.1994 7.193,-36.4211 24.06,-44.6328 5.67,-2.7604 7.584,-3.1032 17.419,-3.1206 9.595,-0.017 11.847,0.3553 17.125,2.8317 7.558,3.5464 16.343,11.5166 27.721,25.1475 46.628,55.8629 66.946,127.4555 56.765,200.0141 -7.193,51.265 -31.659,101.3102 -67.661,138.4016 -12.123,12.4898 -18.594,15.6683 -32.846,16.1333 -8.419,0.2747 -10.893,-0.074 -16.139,-2.2765 z"
         id="path43680"
         transform="matrix(0.26458333,0,0,0.26458333,3519.8865,-1827.9375)" />
      <path
         style="opacity:1;fill:#ffffff;fill-opacity:1;stroke-width:1.55906"
         d="m -10134.338,6238.9639 c -14.945,-7.4543 -24.239,-22.115 -24.206,-38.1826 0.03,-13.075 3.686,-20.0664 20.039,-38.2862 48.481,-54.0141 76.257,-111.9272 87.181,-181.7722 3.816,-24.3985 3.805,-75.1394 -0.02,-98.6916 -11.517,-70.8907 -40.989,-131.7582 -88.412,-182.5903 -15.384,-16.4907 -19.517,-24.5489 -19.446,-37.9165 0.09,-17.0123 10.375,-32.2771 26.202,-38.8904 8.598,-3.5923 23.74,-2.9679 33.001,1.3608 9.883,4.6196 31.092,26.5797 50.234,52.0136 46.22,61.4089 74.196,130.958 83.5021,207.5853 2.4604,20.2593 2.4782,75.3137 0.031,95.3125 -8.6334,70.548 -33.9961,137.8486 -73.2381,194.3404 -20.791,29.9287 -48.87,60.7466 -59.915,65.758 -9.37,4.2514 -26.387,4.2315 -34.952,-0.041 z"
         id="path43682"
         transform="matrix(0.26458333,0,0,0.26458333,3519.8865,-1827.9375)" />
    </g>
    <g
       id="g43694"
       transform="matrix(0.03221909,0,0,0.03221909,56.83422,142.87899)"
       style="opacity:0.662461;fill:#ffffff;filter:url(#filter43696)">
      <path
         style="opacity:1;fill:#ffffff;fill-opacity:1;stroke-width:1.10242"
         d="m -10399.622,6226.0104 c -3.442,-1.1372 -7.917,-3.1072 -9.944,-4.3776 -2.027,-1.2705 -39.979,-38.6265 -84.338,-83.0132 l -80.651,-80.7032 h -58.622 c -56.656,0 -58.853,-0.078 -65.5,-2.3229 -7.881,-2.6612 -17.338,-10.5317 -21.796,-18.1385 -5.738,-9.7923 -5.911,-12.8535 -5.927,-104.9052 0,-51.592 0.422,-87.8616 1.093,-92.1001 2.233,-14.088 10.328,-25.1744 22.906,-31.368 l 7.361,-3.6245 60.239,-0.3041 60.24,-0.3041 81.207,-81.0748 c 65.997,-65.8896 82.322,-81.6299 87.163,-84.0384 21.483,-10.69 46.423,-1.8162 57.334,20.3994 l 3.001,6.1103 v 265.1883 265.1883 l -3.618,7.348 c -9.172,18.6311 -31.185,28.3061 -50.148,22.0403 z"
         id="path43688"
         transform="matrix(0.26458333,0,0,0.26458333,3519.8865,-1827.9375)" />
      <path
         style="opacity:1;fill:#ffffff;fill-opacity:1;stroke-width:1.10242"
         d="m -10252.615,6120.554 c -7.511,-3.1532 -11.772,-6.0989 -16.327,-11.2859 -10.011,-11.4022 -13.276,-29.0133 -7.947,-42.8727 1.875,-4.8789 7.374,-12.3528 16.286,-22.1381 20.335,-22.3261 35.367,-53.147 40.871,-83.801 2.471,-13.7621 2.497,-42.9745 0.05,-57.2195 -5.427,-31.5989 -20.843,-62.6833 -43.18,-87.0621 -10.285,-11.2261 -14.401,-18.3716 -16.198,-28.119 -3.169,-17.1994 7.193,-36.4211 24.06,-44.6328 5.67,-2.7604 7.584,-3.1032 17.419,-3.1206 9.595,-0.017 11.847,0.3553 17.125,2.8317 7.558,3.5464 16.343,11.5166 27.721,25.1475 46.628,55.8629 66.946,127.4555 56.765,200.0141 -7.193,51.265 -31.659,101.3102 -67.661,138.4016 -12.123,12.4898 -18.594,15.6683 -32.846,16.1333 -8.419,0.2747 -10.893,-0.074 -16.139,-2.2765 z"
         id="path43690"
         transform="matrix(0.26458333,0,0,0.26458333,3519.8865,-1827.9375)" />
      <path
         style="opacity:1;fill:#ffffff;fill-opacity:1;stroke-width:1.55906"
         d="m -10134.338,6238.9639 c -14.945,-7.4543 -24.239,-22.115 -24.206,-38.1826 0.03,-13.075 3.686,-20.0664 20.039,-38.2862 48.481,-54.0141 76.257,-111.9272 87.181,-181.7722 3.816,-24.3985 3.805,-75.1394 -0.02,-98.6916 -11.517,-70.8907 -40.989,-131.7582 -88.412,-182.5903 -15.384,-16.4907 -19.517,-24.5489 -19.446,-37.9165 0.09,-17.0123 10.375,-32.2771 26.202,-38.8904 8.598,-3.5923 23.74,-2.9679 33.001,1.3608 9.883,4.6196 31.092,26.5797 50.234,52.0136 46.22,61.4089 74.196,130.958 83.5021,207.5853 2.4604,20.2593 2.4782,75.3137 0.031,95.3125 -8.6334,70.548 -33.9961,137.8486 -73.2381,194.3404 -20.791,29.9287 -48.87,60.7466 -59.915,65.758 -9.37,4.2514 -26.387,4.2315 -34.952,-0.041 z"
         id="path43692"
         transform="matrix(0.26458333,0,0,0.26458333,3519.8865,-1827.9375)" />
    </g>
  </g>
</svg>
