<?xml version="1.0" encoding="UTF-8" standalone="no"?>
<!-- Created with Inkscape (http://www.inkscape.org/) -->

<svg
   width="13.46172mm"
   height="14.056036mm"
   viewBox="0 0 13.461719 14.056036"
   version="1.1"
   id="svg55446"
   inkscape:export-filename="chat_button.png"
   inkscape:export-xdpi="96"
   inkscape:export-ydpi="96"
   sodipodi:docname="sound_off_button_hover.svg"
   inkscape:version="1.2.1 (9c6d41e410, 2022-07-14)"
   xmlns:inkscape="http://www.inkscape.org/namespaces/inkscape"
   xmlns:sodipodi="http://sodipodi.sourceforge.net/DTD/sodipodi-0.dtd"
   xmlns:xlink="http://www.w3.org/1999/xlink"
   xmlns="http://www.w3.org/2000/svg"
   xmlns:svg="http://www.w3.org/2000/svg">
  <sodipodi:namedview
     id="namedview55448"
     pagecolor="#ffffff"
     bordercolor="#999999"
     borderopacity="1"
     inkscape:showpageshadow="0"
     inkscape:pageopacity="0"
     inkscape:pagecheckerboard="0"
     inkscape:deskcolor="#d1d1d1"
     inkscape:document-units="mm"
     showgrid="false"
     inkscape:zoom="3.1251122"
     inkscape:cx="53.598076"
     inkscape:cy="-50.878174"
     inkscape:window-width="1003"
     inkscape:window-height="1041"
     inkscape:window-x="901"
     inkscape:window-y="0"
     inkscape:window-maximized="0"
     inkscape:current-layer="layer1" />
  <defs
     id="defs55443">
    <linearGradient
       inkscape:collect="always"
       xlink:href="#linearGradient22182"
       id="linearGradient45104"
       gradientUnits="userSpaceOnUse"
       gradientTransform="translate(34.975557,-97.480961)"
       x1="711.53455"
       y1="-224.01414"
       x2="711.81653"
       y2="-188.91875" />
    <linearGradient
       inkscape:collect="always"
       id="linearGradient22182">
      <stop
         style="stop-color:#ffffff;stop-opacity:1;"
         offset="0"
         id="stop22178" />
      <stop
         style="stop-color:#ffffff;stop-opacity:0;"
         offset="1"
         id="stop22180" />
    </linearGradient>
    <filter
       inkscape:collect="always"
       style="color-interpolation-filters:sRGB"
       id="filter45112"
       x="-0.6010999"
       y="-0.73040809"
       width="2.2021998"
       height="2.4608162">
      <feGaussianBlur
         inkscape:collect="always"
         stdDeviation="58.183429"
         id="feGaussianBlur45114" />
    </filter>
  </defs>
  <g
     inkscape:label="Warstwa 1"
     inkscape:groupmode="layer"
     id="layer1"
     transform="translate(-77.359379,-131.49785)">
    <g
       id="g45096"
       transform="translate(-663.90179,423.81191)">
      <rect
         style="fill:#303030;fill-opacity:1;stroke-width:0.28679"
         id="rect45090"
         width="13.461711"
         height="14.055989"
         x="741.26117"
         y="-292.31406"
         ry="2.3293049" />
      <path
         id="path45092"
         style="fill:#181818;fill-opacity:1;stroke-width:0.28679"
         d="m 741.26118,-281.12864 v 0.54156 c 0,1.29044 1.03914,2.32906 2.32957,2.32906 h 8.80308 c 1.29044,0 2.32906,-1.03862 2.32906,-2.32906 v -0.54156 c 0,1.23088 -0.99068,2.22208 -2.22157,2.22208 h -9.01805 c -1.23089,0 -2.22209,-0.9912 -2.22209,-2.22208 z" />
      <rect
         style="fill:url(#linearGradient45104);fill-opacity:1;stroke-width:0.28679"
         id="rect45094"
         width="13.461711"
         height="14.055989"
         x="741.26117"
         y="-292.31406"
         ry="2.3293049" />
    </g>
    <g
       id="g45102"
       transform="matrix(0.02709763,0,0,0.02709763,60.68053,146.22162)"
       style="fill:#ffffff">
      <path
         style="opacity:1;fill:#ffffff;fill-opacity:1;stroke-width:1.55906"
         d="m -9893.75,5968.2211 c -9.7597,-3.2338 -15.0953,-6.4942 -22.1578,-13.5398 -10.7243,-10.6985 -13.7271,-18.5424 -13.7555,-35.9313 -0.035,-21.1789 1.4238,-23.3536 44.5859,-66.485 l 35.8293,-35.804 -36.6185,-36.7461 c -42.5089,-42.6572 -45.2729,-46.7607 -45.2729,-67.2149 0,-9.3411 0.8282,-13.5092 4.0822,-20.5437 13.4056,-28.9805 49.8279,-39.5232 75.2031,-21.768 3.5979,2.5175 21.9922,20.0866 40.8762,39.0424 l 34.3346,34.465 38.3217,-38.03 c 43.6207,-43.2888 44.6599,-43.9754 66.4467,-43.9086 9.3835,0.029 14.3214,0.8706 19.8057,3.3764 10.3174,4.7141 20.2751,14.4738 25.5454,25.0376 3.8365,7.69 4.5174,10.9234 4.5374,21.5477 0.04,21.2186 -2.3584,24.8206 -45.2285,67.9311 l -36.6339,36.8392 35.9608,35.8961 c 42.4481,42.3718 44.4506,45.3615 44.4506,66.3648 0,11.3496 -0.6296,14.5633 -4.3289,22.0961 -5.052,10.2875 -15.5218,20.5302 -25.8654,25.3045 -5.7714,2.6638 -10.0949,3.3459 -20.587,3.2475 -21.2974,-0.1995 -23.1158,-1.4096 -65.5907,-43.6477 l -36.7655,-36.5605 -36.0029,35.8142 c -29.9595,29.8025 -37.5398,36.5179 -45.1592,40.0061 -10.8427,4.964 -26.5071,6.3606 -36.0129,3.2109 z"
         id="path45098"
         transform="matrix(0.26458333,0,0,0.26458333,3519.8865,-1827.9375)" />
      <path
         style="opacity:1;fill:#ffffff;fill-opacity:1;stroke-width:1.55906"
         d="m -10103.906,6174.7903 -10.157,-3.398 -100.781,-100.5008 -100.781,-100.5008 -74.219,-0.4297 c -73.733,-0.4269 -74.265,-0.4531 -81.384,-3.997 -9.762,-4.8595 -19.331,-14.7095 -24.483,-25.1998 l -4.289,-8.7329 v -115.625 -115.625 l 4.064,-8.6651 c 5.8,-12.365 12.661,-19.4328 24.548,-25.2872 l 10.376,-5.1102 73.166,-0.7813 73.166,-0.7812 97.965,-97.8873 c 108.933,-108.8468 105.533,-105.9738 126.871,-107.209 24.888,-1.4406 45.197,13.0945 52.265,37.4055 2.209,7.5975 2.418,41.0187 2.051,327.1389 l -0.41,318.6769 -4.137,8.8249 c -11.465,24.4535 -38.474,36.1678 -63.831,27.6841 z"
         id="path45100"
         transform="matrix(0.26458333,0,0,0.26458333,3519.8865,-1827.9375)" />
    </g>
    <g
       id="g45110"
       transform="matrix(0.02709763,0,0,0.02709763,60.68053,146.22162)"
       style="opacity:0.662;fill:#ffffff;filter:url(#filter45112)">
      <path
         style="opacity:1;fill:#ffffff;fill-opacity:1;stroke-width:1.55906"
         d="m -9893.75,5968.2211 c -9.7597,-3.2338 -15.0953,-6.4942 -22.1578,-13.5398 -10.7243,-10.6985 -13.7271,-18.5424 -13.7555,-35.9313 -0.035,-21.1789 1.4238,-23.3536 44.5859,-66.485 l 35.8293,-35.804 -36.6185,-36.7461 c -42.5089,-42.6572 -45.2729,-46.7607 -45.2729,-67.2149 0,-9.3411 0.8282,-13.5092 4.0822,-20.5437 13.4056,-28.9805 49.8279,-39.5232 75.2031,-21.768 3.5979,2.5175 21.9922,20.0866 40.8762,39.0424 l 34.3346,34.465 38.3217,-38.03 c 43.6207,-43.2888 44.6599,-43.9754 66.4467,-43.9086 9.3835,0.029 14.3214,0.8706 19.8057,3.3764 10.3174,4.7141 20.2751,14.4738 25.5454,25.0376 3.8365,7.69 4.5174,10.9234 4.5374,21.5477 0.04,21.2186 -2.3584,24.8206 -45.2285,67.9311 l -36.6339,36.8392 35.9608,35.8961 c 42.4481,42.3718 44.4506,45.3615 44.4506,66.3648 0,11.3496 -0.6296,14.5633 -4.3289,22.0961 -5.052,10.2875 -15.5218,20.5302 -25.8654,25.3045 -5.7714,2.6638 -10.0949,3.3459 -20.587,3.2475 -21.2974,-0.1995 -23.1158,-1.4096 -65.5907,-43.6477 l -36.7655,-36.5605 -36.0029,35.8142 c -29.9595,29.8025 -37.5398,36.5179 -45.1592,40.0061 -10.8427,4.964 -26.5071,6.3606 -36.0129,3.2109 z"
         id="path45106"
         transform="matrix(0.26458333,0,0,0.26458333,3519.8865,-1827.9375)" />
      <path
         style="opacity:1;fill:#ffffff;fill-opacity:1;stroke-width:1.55906"
         d="m -10103.906,6174.7903 -10.157,-3.398 -100.781,-100.5008 -100.781,-100.5008 -74.219,-0.4297 c -73.733,-0.4269 -74.265,-0.4531 -81.384,-3.997 -9.762,-4.8595 -19.331,-14.7095 -24.483,-25.1998 l -4.289,-8.7329 v -115.625 -115.625 l 4.064,-8.6651 c 5.8,-12.365 12.661,-19.4328 24.548,-25.2872 l 10.376,-5.1102 73.166,-0.7813 73.166,-0.7812 97.965,-97.8873 c 108.933,-108.8468 105.533,-105.9738 126.871,-107.209 24.888,-1.4406 45.197,13.0945 52.265,37.4055 2.209,7.5975 2.418,41.0187 2.051,327.1389 l -0.41,318.6769 -4.137,8.8249 c -11.465,24.4535 -38.474,36.1678 -63.831,27.6841 z"
         id="path45108"
         transform="matrix(0.26458333,0,0,0.26458333,3519.8865,-1827.9375)" />
    </g>
  </g>
</svg>
