<?xml version="1.0" encoding="UTF-8" standalone="no"?>
<!-- Created with Inkscape (http://www.inkscape.org/) -->

<svg
   width="24.699789mm"
   height="14.004313mm"
   viewBox="0 0 24.699786 14.004313"
   version="1.1"
   id="svg55446"
   inkscape:export-filename="chat_button.png"
   inkscape:export-xdpi="96"
   inkscape:export-ydpi="96"
   sodipodi:docname="stand_button.svg"
   inkscape:version="1.2.1 (9c6d41e410, 2022-07-14)"
   xmlns:inkscape="http://www.inkscape.org/namespaces/inkscape"
   xmlns:sodipodi="http://sodipodi.sourceforge.net/DTD/sodipodi-0.dtd"
   xmlns:xlink="http://www.w3.org/1999/xlink"
   xmlns="http://www.w3.org/2000/svg"
   xmlns:svg="http://www.w3.org/2000/svg">
  <sodipodi:namedview
     id="namedview55448"
     pagecolor="#ffffff"
     bordercolor="#999999"
     borderopacity="1"
     inkscape:showpageshadow="0"
     inkscape:pageopacity="0"
     inkscape:pagecheckerboard="0"
     inkscape:deskcolor="#d1d1d1"
     inkscape:document-units="mm"
     showgrid="false"
     inkscape:zoom="1.104894"
     inkscape:cx="38.012695"
     inkscape:cy="75.120327"
     inkscape:window-width="1003"
     inkscape:window-height="1041"
     inkscape:window-x="907"
     inkscape:window-y="10"
     inkscape:window-maximized="0"
     inkscape:current-layer="layer1" />
  <defs
     id="defs55443">
    <linearGradient
       inkscape:collect="always"
       xlink:href="#linearGradient50496"
       id="linearGradient50498"
       x1="941.42902"
       y1="-318.49622"
       x2="941.79547"
       y2="-269.7269"
       gradientUnits="userSpaceOnUse"
       gradientTransform="translate(-887.44996,386.38062)" />
    <linearGradient
       inkscape:collect="always"
       id="linearGradient50496">
      <stop
         style="stop-color:#ffffff;stop-opacity:1;"
         offset="0"
         id="stop50492" />
      <stop
         style="stop-color:#ffffff;stop-opacity:0;"
         offset="1"
         id="stop50494" />
    </linearGradient>
  </defs>
  <g
     inkscape:label="Warstwa 1"
     inkscape:groupmode="layer"
     id="layer1"
     transform="translate(-42.68092,-110.18303)">
    <rect
       style="fill:#303030;fill-opacity:1;stroke-width:0.209618"
       id="rect48399"
       width="24.699335"
       height="14.004313"
       x="42.681164"
       y="110.18303"
       ry="6.521647" />
    <g
       id="g38876"
       transform="matrix(0.03623897,0,0,0.03623897,21.36251,134.04966)"
       style="fill:#ffffff">
      <path
         style="opacity:1;fill:#ffffff;fill-opacity:1;stroke-width:0.20625"
         d="m 779.79938,-412.26677 c -7.6126,-0.92292 -14.03112,-3.04723 -20.11839,-6.65848 -2.86967,-1.70233 -7.58005,-5.46317 -7.58005,-6.05187 0,-0.11051 0.17489,-0.45299 0.38894,-0.76102 0.36962,-0.53221 2.16826,-3.44037 2.60826,-4.21761 2.55931,-4.51967 3.88329,-5.74757 6.19786,-5.74757 1.33747,0 2.44767,0.49307 4.86093,2.15905 5.05751,3.49168 9.40012,5.54522 13.22917,6.25607 2.88739,0.53602 7.91845,0.49194 10.61138,-0.0929 6.89715,-1.49809 10.70213,-6.05652 11.00163,-13.17977 0.16616,-3.95668 -1.16072,-6.77812 -4.37753,-9.30862 -2.51909,-1.98152 -5.84041,-3.42463 -11.86127,-5.15363 -4.37197,-1.2555 -9.15273,-2.84356 -11.26543,-3.74208 -3.09298,-1.31549 -4.14416,-1.81677 -5.54037,-2.64232 -6.06187,-3.5841 -9.63189,-8.3576 -11.23024,-15.01677 -0.42677,-1.7785 -0.54134,-2.88385 -0.63447,-6.12137 -0.10134,-3.51835 -0.0643,-4.19733 0.33655,-6.20117 1.28482,-6.42221 4.38362,-11.70943 9.23898,-15.76483 4.49977,-3.75817 10.58519,-6.33185 16.71797,-7.07025 2.60905,-0.31414 8.63785,-0.30954 11.45143,0.009 7.8097,0.88342 15.26963,3.95087 20.88382,8.58719 0.68819,0.56845 1.25201,1.19721 1.25281,1.39723 0,0.20003 -0.4117,1.13022 -0.91678,2.06706 -0.50509,0.93684 -1.46421,2.7505 -2.13175,4.03035 -1.6719,3.20645 -2.29235,4.03185 -3.45282,4.59361 -1.65523,0.80135 -3.20436,0.43686 -6.10605,-1.43674 -0.98875,-0.63836 -1.30572,-0.82206 -3.10065,-1.79594 -5.37184,-2.91489 -12.05495,-3.86905 -17.56992,-2.50854 -3.21919,0.79418 -5.43243,2.02605 -7.19693,4.00566 -2.66886,2.99426 -3.48404,8.57388 -1.75631,12.01984 0.58791,1.17226 2.52307,3.20839 3.99944,4.20753 1.88595,1.27654 5.45995,2.89634 8.77782,3.97838 2.09735,0.68398 8.323,2.75969 9.81816,3.27351 1.31895,0.4532 3.54965,1.31649 4.44447,1.7199 4.65878,2.10026 6.5622,3.20463 9.09505,5.27711 4.09416,3.34968 6.6937,7.83574 7.64964,13.19998 0.36486,2.04785 0.41407,7.69652 0.0878,10.08655 -0.75671,5.54681 -2.94032,10.80773 -6.16188,14.84609 -1.76107,2.20795 -2.05767,2.51534 -4.00209,4.1501 -4.44632,3.73822 -9.24984,5.92045 -15.6972,7.131 -1.81954,0.34168 -3.32872,0.45331 -6.78418,0.50186 -2.44449,0.0343 -4.76991,0.023 -5.16784,-0.0254 z"
         id="path38859" />
      <path
         style="opacity:1;fill:#ffffff;fill-opacity:1;stroke-width:0.20625"
         d="m 848.0124,-412.26735 c -5.25251,-0.9873 -8.2042,-2.40046 -10.65636,-5.10175 -2.23308,-2.45999 -3.50679,-5.21809 -4.23148,-9.16273 -0.3892,-2.11858 -0.40852,-3.19432 -0.40852,-22.85394 v -20.6307 l -3.87562,-0.004 c -4.57649,-0.005 -5.30807,-0.20249 -6.03408,-1.62534 -0.38418,-0.75298 -0.42545,-1.20578 -0.42545,-4.65375 v -3.81964 l 0.98187,-0.13848 c 0.54001,-0.0762 1.72587,-0.2681 2.63551,-0.42653 0.90937,-0.15844 2.63022,-0.43352 3.82402,-0.61132 1.1938,-0.17778 2.5064,-0.41024 2.91703,-0.5166 0.83609,-0.21646 0.78688,-0.0745 1.63619,-4.74028 1.29037,-7.09067 2.47703,-13.44744 2.6789,-14.34959 0.24871,-1.11287 0.79217,-1.79258 1.87484,-2.34564 0.8845,-0.45191 1.08559,-0.46683 5.56895,-0.41341 l 4.65111,0.0554 0.10319,10.85204 0.10345,10.85205 9.1984,0.10337 9.1984,0.10334 v 5.78777 5.78776 l -9.25603,0.0538 -9.25613,0.0538 0.0632,19.89331 c 0.0484,15.23254 0.12382,20.07137 0.32173,20.6534 0.51065,1.5027 1.51474,2.70589 2.80834,3.36526 1.11109,0.56637 1.38772,0.61886 3.16217,0.60008 1.91254,-0.0204 1.97927,-0.0381 4.05339,-1.08371 1.23002,-0.62008 2.38218,-1.06204 2.76476,-1.0605 0.95282,0.004 1.65802,0.70567 3.14921,3.13454 1.56331,2.5464 2.22528,3.5986 2.73843,4.35277 0.20958,0.30803 0.38106,0.64545 0.38106,0.74983 0,0.10437 0.13954,0.30556 0.31006,0.44709 0.74507,0.61833 0.0734,1.32331 -2.89388,3.03734 -4.32048,2.49571 -8.481,3.58756 -14.05599,3.68879 -1.93257,0.0351 -3.74655,0.0201 -4.03071,-0.0333 z"
         id="path38861" />
      <path
         style="opacity:1;fill:#ffffff;fill-opacity:1;stroke-width:0.20625"
         d="m 890.28369,-412.26794 c -5.38771,-0.79623 -9.04423,-2.541 -12.0337,-5.74211 -2.78572,-2.98292 -3.99775,-6.0774 -4.50332,-11.49779 -0.24585,-2.63565 0.59767,-6.73952 1.8197,-8.85344 2.46626,-4.26611 7.36367,-8.01216 13.37371,-10.22958 5.91031,-2.18059 13.18408,-3.49658 22.53094,-4.07633 1.87584,-0.11634 3.54073,-0.2562 3.69972,-0.31075 0.23833,-0.0818 0.26731,-0.66966 0.16512,-3.34958 -0.16335,-4.28466 -0.57763,-6.53512 -1.58773,-8.62467 -1.37705,-2.84869 -3.55542,-4.57123 -6.82464,-5.39652 -1.07371,-0.27107 -1.96638,-0.31634 -4.44418,-0.2254 -4.47969,0.16441 -6.35124,0.76562 -11.59409,3.72449 -1.71556,0.96819 -3.51095,1.86581 -3.98974,1.99474 -1.37017,0.36896 -3.17767,0.3006 -4.1925,-0.15856 -1.3371,-0.605 -2.24587,-1.70021 -4.06546,-4.89969 l -1.64581,-2.89388 0.94107,-0.82682 c 7.80999,-6.86179 17.81164,-10.32044 28.78399,-9.95376 6.16522,0.20603 9.93262,1.35303 14.51271,4.41844 1.74903,1.17059 4.51157,4.03267 5.84166,6.0521 1.90751,2.89616 3.56015,7.55817 4.02818,11.36338 0.13787,1.12101 0.21545,10.18598 0.21545,25.18018 v 23.42859 l -4.80592,-0.0654 c -4.64754,-0.0633 -4.83997,-0.0824 -5.83938,-0.58219 -1.36295,-0.68151 -1.95358,-1.62642 -2.77792,-4.44418 -0.72969,-2.49417 -1.04862,-3.41063 -1.18692,-3.41063 -0.0498,0 -0.85243,0.63444 -1.78361,1.40985 -5.3485,4.45392 -8.97297,6.31106 -14.61211,7.4871 -1.64211,0.34245 -3.05091,0.46742 -5.78776,0.51335 -1.98954,0.0334 -3.89642,0.0196 -4.23746,-0.0309 z m 14.26268,-11.85119 c 3.20064,-0.83645 6.62077,-2.89684 9.59538,-5.78051 l 1.25666,-1.21824 v -5.80671 -5.80673 h -1.29191 c -2.08383,0 -7.68228,0.5905 -10.69702,1.12609 -5.97199,1.06098 -9.45459,2.47746 -11.69085,4.7551 -1.76692,1.79956 -2.23991,3.10769 -2.11373,5.84583 0.108,2.3436 0.66818,3.85416 1.87785,5.06384 0.88778,0.88778 3.06882,1.95265 4.54298,2.21808 1.79384,0.32297 6.62656,0.0976 8.52064,-0.39746 z"
         id="path38863" />
      <path
         style="opacity:1;fill:#ffffff;fill-opacity:1;stroke-width:0.20625"
         d="m 947.37124,-413.30785 c -0.0771,-0.0771 -0.14015,-15.65857 -0.14015,-34.62555 v -34.48542 h 5.53075 c 3.04191,0 5.84869,0.0912 6.23728,0.20265 0.84971,0.24368 1.7775,1.08497 2.28405,2.07113 0.20439,0.3979 0.5739,1.74664 0.82113,2.99722 0.70064,3.54415 0.67027,3.51121 1.98305,2.14998 1.70736,-1.77038 5.32247,-4.45227 7.43167,-5.51328 1.6754,-0.84275 3.57341,-1.53384 5.89111,-2.14503 4.18118,-1.10257 10.30372,-1.05608 14.16161,0.10753 8.36639,2.52349 13.20456,8.26677 15.43286,18.31991 l 0.4811,2.1704 0.059,24.44297 0.059,24.44295 h -8.27041 -8.27045 l -0.0663,-23.92619 -0.0663,-23.92619 -0.46255,-1.52064 c -1.21354,-3.9896 -3.30398,-6.30864 -6.75299,-7.49157 -1.2864,-0.44119 -1.80244,-0.49586 -4.65089,-0.49255 -2.95249,0.003 -3.34055,0.0492 -4.94499,0.58306 -3.34806,1.11414 -6.66022,3.15791 -9.48179,5.85079 l -0.68085,0.64979 -0.0426,25.08506 -0.0426,25.08507 -8.17977,0.054 c -4.49887,0.0297 -8.24283,-0.009 -8.31991,-0.0861 z"
         id="path38865" />
      <path
         style="opacity:1;fill:#ffffff;fill-opacity:1;stroke-width:0.20625"
         d="m 1043.1426,-412.26915 c -5.6387,-0.72996 -10.1244,-2.92402 -13.9703,-6.83308 -2.8549,-2.90182 -4.9444,-6.48798 -6.5621,-11.26246 -1.7649,-5.20872 -2.4509,-9.96432 -2.4549,-17.0175 0,-6.17127 0.656,-10.52735 2.3469,-15.50294 2.9273,-8.61333 8.2097,-14.83046 15.5322,-18.28052 3.7716,-1.77702 7.1443,-2.49295 11.7227,-2.4884 6.7101,0.007 11.5111,1.69944 16.277,5.739 l 1.0841,0.91887 0.053,-18.26591 0.053,-18.26593 7.8548,-0.0569 c 4.3201,-0.0313 8.0622,-0.007 8.3157,0.0546 l 0.4608,0.11149 -0.047,50.07158 -0.048,50.07157 h -5.6918 c -6.332,0 -6.8956,-0.10038 -7.856,-1.39949 -0.4782,-0.6468 -1.2311,-3.39352 -1.6615,-6.06123 -0.1315,-0.81526 -0.3126,-1.60115 -0.4023,-1.74641 -0.1158,-0.18724 -0.7856,0.31925 -2.301,1.74003 -6.1562,5.77144 -11.858,8.29451 -19.191,8.49218 -1.5348,0.0413 -3.1161,0.033 -3.514,-0.0185 z m 11.7822,-13.31817 c 3.7914,-0.61 7.4836,-2.80311 10.8618,-6.45187 l 1.3338,-1.44068 v -15.71112 -15.71109 l -0.7686,-0.85188 c -3.2359,-3.58653 -7.4558,-5.36871 -12.6672,-5.34979 -2.813,0.0103 -4.8241,0.46233 -7.1314,1.60319 -6.4312,3.17994 -9.673,11.25442 -9.3369,23.25526 0.2261,8.07262 1.4347,12.79821 4.2466,16.60464 1.4273,1.93201 4.2726,3.63638 6.7695,4.055 1.4788,0.24794 5.1467,0.24702 6.6924,-0.003 z"
         id="path38869" />
    </g>
    <path
       id="rect50416"
       style="fill:#181818;fill-opacity:1;stroke-width:0.209618"
       d="m 42.68092,117.03067 v 0.63511 c 0,3.61299 2.90909,6.52156 6.52208,6.52156 h 11.65562 c 3.61299,0 6.52209,-2.90857 6.52209,-6.52156 v -0.63511 c 0,3.61299 -2.9091,6.52157 -6.52209,6.52157 H 49.203 c -3.61299,0 -6.52208,-2.90858 -6.52208,-6.52157 z" />
    <rect
       style="fill:url(#linearGradient50498);fill-opacity:1;stroke-width:0.209618"
       id="rect50490"
       width="24.699335"
       height="14.004313"
       x="42.681164"
       y="110.18303"
       ry="6.521647" />
  </g>
</svg>
